<svg width="21" height="21" viewBox="0 0 21 21" fill="none" xmlns="http://www.w3.org/2000/svg">
<path fill-rule="evenodd" clip-rule="evenodd" d="M10.5 0C6.78884 0 4.1109 0.430232 2.37856 1.7776C0.579221 3.17709 0 5.38986 0 8.34614C0 10.4129 0.281374 12.1138 1.06986 13.4337C1.78533 14.6314 2.86495 15.4295 4.30769 15.9331V20.1923C4.30769 20.519 4.50448 20.8135 4.80629 20.9385C5.10811 21.0635 5.45551 20.9944 5.68651 20.7634L9.76371 16.6862C10.0039 16.6903 10.2493 16.6923 10.5 16.6923C14.2112 16.6923 16.8891 16.262 18.6215 14.9147C20.4208 13.5152 21 11.3024 21 8.34614C21 5.38987 20.4208 3.17709 18.6215 1.7776C16.8891 0.430231 14.2112 0 10.5 0ZM6 9C6.55228 9 7 8.55229 7 8C7 7.44772 6.55228 7 6 7C5.44772 7 5 7.44772 5 8C5 8.55229 5.44772 9 6 9ZM11 8C11 8.55229 10.5523 9 10 9C9.44771 9 9 8.55229 9 8C9 7.44772 9.44771 7 10 7C10.5523 7 11 7.44772 11 8ZM14 9C14.5523 9 15 8.55229 15 8C15 7.44772 14.5523 7 14 7C13.4477 7 13 7.44772 13 8C13 8.55229 13.4477 9 14 9Z" fill="white"/>
</svg>
