<svg width="25" height="25" viewBox="0 0 25 25" fill="none" xmlns="http://www.w3.org/2000/svg">
<path fill-rule="evenodd" clip-rule="evenodd" d="M21.3389 3.66113L12.5 0L3.66113 3.66113L0 12.5L3.66113 21.3389L12.5 25L21.3389 21.3389L25 12.5L21.3389 3.66113ZM10.9658 12.9937V19.207H13.3994V12.9937H15.7881L15.8965 10.7566H13.3994V9.12329C13.3994 8.50635 13.5322 8.13477 14.3618 8.13477C15.1284 8.13477 15.8306 8.14136 15.8306 8.14136L15.8848 6.05249C15.8848 6.05249 15.1963 5.96558 14.2646 5.96558C11.9644 5.96558 10.9658 7.34448 10.9658 8.84595V10.7566H9.27588V12.9937H10.9658Z" fill="white"/>
</svg>
