<svg width="25" height="25" viewBox="0 0 25 25" fill="none" xmlns="http://www.w3.org/2000/svg">
<path fill-rule="evenodd" clip-rule="evenodd" d="M21.3389 3.66113L12.5 0L3.66113 3.66113L0 12.5L3.66113 21.3389L12.5 25L21.3389 21.3389L25 12.5L21.3389 3.66113ZM9.44238 10.293V17.5518H7.13623V10.293H9.44238ZM9.59424 8.04736C9.59424 8.7439 9.09375 9.30127 8.28955 9.30127H8.27441C7.50049 9.30127 7 8.7439 7 8.04736C7 7.33521 7.51611 6.79321 8.30469 6.79321C9.09375 6.79321 9.5791 7.33521 9.59424 8.04736ZM13.0249 17.5518H10.7188C10.7188 17.5518 10.749 10.9739 10.7188 10.293H13.0249V11.321C13.3311 10.8264 13.8799 10.1226 15.1035 10.1226C16.6211 10.1226 17.7588 11.1599 17.7588 13.3896V17.5518H15.4526V13.6685C15.4526 12.6926 15.1187 12.0271 14.2842 12.0271C13.647 12.0271 13.2676 12.4758 13.1011 12.9094C13.04 13.0645 13.0249 13.2812 13.0249 13.498V17.5518Z" fill="#8C53FF"/>
</svg>
