<?xml version="1.0" encoding="utf-8"?>
<!-- Generator: Adobe Illustrator 26.5.2, SVG Export Plug-In . SVG Version: 6.00 Build 0)  -->
<svg version="1.1" id="Calque_1" xmlns="http://www.w3.org/2000/svg" xmlns:xlink="http://www.w3.org/1999/xlink" x="0px" y="0px"
	 viewBox="0 0 225.8 115.9" style="enable-background:new 0 0 225.8 115.9;" xml:space="preserve">
<style type="text/css">
	.st0{fill:url(#SVGID_1_);}
	.st1{fill:url(#SVGID_00000050656340868857681880000011432685853999626170_);}
	.st2{fill:url(#SVGID_00000110466969994343346760000003078744585442964868_);}
	.st3{fill:url(#SVGID_00000080188342367986238870000010277943470644788113_);}
	.st4{fill:url(#SVGID_00000061453574665815192480000016786923302912811671_);}
	.st5{fill:url(#SVGID_00000139280328044017295170000015009087861968691360_);}
	.st6{fill:url(#SVGID_00000039098077538849816180000003341935001979120536_);}
	.st7{fill:url(#SVGID_00000132081349696373514460000009124329301084863926_);}
	.st8{fill:url(#SVGID_00000183206542499593125550000008335603344125482373_);}
	.st9{fill:#FFBD59;}
</style>
<g transform="matrix(1 0 0 1 -70.76844598292962 -276.76772479172655)">
	
		<linearGradient id="SVGID_1_" gradientUnits="userSpaceOnUse" x1="323.6121" y1="-456.6159" x2="1323.6121" y2="-1456.616" gradientTransform="matrix(0.1372 0 0 -0.1372 58.1535 215.9028)">
		<stop  offset="0" style="stop-color:#7F00FF"/>
		<stop  offset="1" style="stop-color:#E100FF"/>
	</linearGradient>
	<path class="st0" d="M150.3,310.8c-5.1-8.8-10.1-17.6-15.2-26.3c-0.4-0.7-1.7-1.2-2.6-1.2c-4.7-0.1-9.3-0.1-14,0
		c-1.2-2.3-3.7-3.8-6.4-3.8c-4,0-7.3,3.3-7.3,7.3c0,4,3.3,7.3,7.3,7.3c2.7,0,5.1-1.5,6.4-3.7c3.3,0,6.6,0,9.8,0
		c0.9,0,2.1,0.2,2.6,0.7c1.4,1.9,2.4,4,3.8,6.5h-3.5c-7.7,0-15.3,0-23,0c-1,0-2.4,0.1-2.8,0.7c-1.3,1.8-2.3,3.9-3.6,6.3
		c1.4,0,2.4,0,3.3,0c9.4,0,18.8,0.2,28.1-0.1c4.1-0.1,6.9,0.8,8.4,4.8c0.4,0.9,1.5,2,2.5,2.2c2,0.3,4.1,0.1,6.2,0.1
		C150.3,311.1,150.4,310.9,150.3,310.8z M114.8,290.2c-0.7,0.5-1.7,0.9-2.6,0.9c-2.4,0-4.4-2-4.4-4.4c0-2.4,2-4.4,4.4-4.4
		c1.1,0,2.1,0.4,2.9,1.1c0.9,0.8,1.5,2,1.5,3.3C116.5,288.1,115.8,289.4,114.8,290.2z"/>
</g>
<g transform="matrix(1 0 0 1 182 -326)">
	
		<linearGradient id="SVGID_00000152257890430122097130000003613001338177513605_" gradientUnits="userSpaceOnUse" x1="65.0655" y1="-413.1617" x2="65.0655" y2="-413.1617" gradientTransform="matrix(0.1372 0 0 -0.1372 -100.9342 281.2798)">
		<stop  offset="0" style="stop-color:#7F00FF"/>
		<stop  offset="1" style="stop-color:#E100FF"/>
	</linearGradient>
	<path style="fill:url(#SVGID_00000152257890430122097130000003613001338177513605_);" d="M-92,338L-92,338L-92,338L-92,338z"/>
</g>
<g transform="matrix(1 0 0 1 186.3999999999998 314.1)">
	
		<linearGradient id="SVGID_00000139990019739451482000000009241528045552567208_" gradientUnits="userSpaceOnUse" x1="62.3155" y1="-1051.6118" x2="1062.3156" y2="-2051.6118" gradientTransform="matrix(0.1372 0 0 -0.1372 -104.5931 -359.0124)">
		<stop  offset="0" style="stop-color:#7F00FF"/>
		<stop  offset="1" style="stop-color:#E100FF"/>
	</linearGradient>
	<path style="fill:url(#SVGID_00000139990019739451482000000009241528045552567208_);" d="M-95.3-214.4c-0.1,0.1-0.1,0.2-0.2,0.4
		c-0.2-0.2-0.5-0.3-0.7-0.4C-96-214.4-95.6-214.4-95.3-214.4z"/>
</g>
<linearGradient id="SVGID_00000124842492558016762860000002394152824872479160_" gradientUnits="userSpaceOnUse" x1="199.9466" y1="-786.2807" x2="1199.9467" y2="-1786.2808" gradientTransform="matrix(0.1372 0 0 -0.1372 -10.6292 -47.575)">
	<stop  offset="0" style="stop-color:#7F00FF"/>
	<stop  offset="1" style="stop-color:#E100FF"/>
</linearGradient>
<path style="fill:url(#SVGID_00000124842492558016762860000002394152824872479160_);" d="M55.2,97.2c-4.3-8.3-8.5-16.7-13.1-24.9
	c-2-3.6-2.5-6.5,0.4-9.7c0.7-0.8,1.1-2.3,0.8-3.2c-0.6-1.9-1.8-3.7-2.8-5.5c-0.4,0.2-0.6,0.2-0.7,0.3c-5.5,8.5-10.9,17.1-16.3,25.7
	c-0.4,0.7-0.3,2.1,0.1,2.8c2.1,4.2,4.2,8.3,6.4,12.4c-0.9,1.2-1.4,2.7-1.4,4.3c0,4,3.3,7.3,7.3,7.3s7.3-3.3,7.3-7.3
	c0-3.9-3-7.1-6.9-7.3l0,0c-1.6-3-3.1-5.9-4.6-8.9c-0.4-0.8-0.8-2-0.5-2.6c1-2.1,2.4-4,4-6.4c0.7,1.4,1.2,2.2,1.6,3.1
	c3.5,6.8,7.1,13.6,10.7,20.4c0.5,0.9,1.2,2.1,2,2.2c2.2,0.3,4.5,0.2,7.2,0.3C56.1,98.9,55.7,98.1,55.2,97.2z M38.2,95.6
	C38.2,95.6,38.3,95.6,38.2,95.6c1.3,0.8,2.2,2.2,2.2,3.8c0,2.4-2,4.4-4.4,4.4c-2.4,0-4.4-2-4.4-4.4c0-0.5,0.1-0.9,0.2-1.3
	C32.3,96.3,34,95,36,95C36.8,95,37.6,95.2,38.2,95.6z"/>
<g transform="matrix(1 0 0 1 186.40000000000003 314.1)">
	
		<linearGradient id="SVGID_00000101792337833594468560000006603441523825248933_" gradientUnits="userSpaceOnUse" x1="62.3155" y1="-1051.6118" x2="1062.3156" y2="-2051.6118" gradientTransform="matrix(0.1372 0 0 -0.1372 -104.5931 -359.0124)">
		<stop  offset="0" style="stop-color:#7F00FF"/>
		<stop  offset="1" style="stop-color:#E100FF"/>
	</linearGradient>
	<path style="fill:url(#SVGID_00000101792337833594468560000006603441523825248933_);" d="M-96.3-214.5c0.2,0.1,0.5,0.2,0.7,0.4
		c0.1-0.1,0.1-0.2,0.2-0.4C-95.6-214.4-96-214.4-96.3-214.5z"/>
</g>
<g transform="matrix(1 0 0 1 76.85397303578793 271.8499999999999)">
	
		<linearGradient id="SVGID_00000168832459859018814270000014658532978867615931_" gradientUnits="userSpaceOnUse" x1="218.4686" y1="-962.7547" x2="1218.4686" y2="-1962.7548" gradientTransform="matrix(0.1372 0 0 -0.1372 -48.8395 -333.5683)">
		<stop  offset="0" style="stop-color:#7F00FF"/>
		<stop  offset="1" style="stop-color:#E100FF"/>
	</linearGradient>
	<path style="fill:url(#SVGID_00000168832459859018814270000014658532978867615931_);" d="M19.6-186.3c-9.4-0.3-18.8-0.8-28.1-0.8
		c-4.1,0-6.9-1-8.2-5.1c-0.3-1-1.5-2.1-2.4-2.3c-2-0.4-4.1-0.2-6.2-0.3c0,0.4-0.1,0.7-0.1,0.8c4.8,8.9,9.5,17.9,14.4,26.8
		c0.4,0.7,1.6,1.2,2.5,1.3c4.4,0.2,8.9,0.4,13.3,0.5c1.1,2.7,3.7,4.6,6.8,4.6c4,0,7.3-3.3,7.3-7.3s-3.3-7.3-7.3-7.3
		c-2.4,0-4.5,1.2-5.9,3c-3.3-0.1-6.6-0.2-9.8-0.4c-0.9,0-2.1-0.2-2.5-0.8c-1.3-1.9-2.3-4.1-3.6-6.6c1.6,0.1,2.5,0.1,3.5,0.1
		c7.7,0.2,15.3,0.5,23,0.7c1,0,2.4,0,2.9-0.6c1.4-1.8,2.4-3.8,3.8-6.2C21.5-186.3,20.5-186.3,19.6-186.3z M10.1-172.3
		c0.5-0.2,0.9-0.2,1.4-0.2c0.6,0,1.2,0.1,1.7,0.3l0,0l0,0c0.3,0,0.6,0,0.9,0c-0.1,0.1-0.1,0.2-0.2,0.4c1.2,0.8,2,2.2,2,3.7
		c0,2.4-2,4.4-4.4,4.4c-1.4,0-2.6-0.7-3.5-1.7c-0.6-0.8-1-1.7-1-2.7C7.2-170.1,8.4-171.7,10.1-172.3z"/>
</g>
<g transform="matrix(1 0 0 1 -250.05000000000004 -46.05558208675839)">
	
		<linearGradient id="SVGID_00000155825345001326607050000017938890846928853676_" gradientUnits="userSpaceOnUse" x1="540.3912" y1="-649.8305" x2="1540.3912" y2="-1649.8306" gradientTransform="matrix(0.1372 0 0 -0.1372 187.8226 -18.1202)">
		<stop  offset="0" style="stop-color:#7F00FF"/>
		<stop  offset="1" style="stop-color:#E100FF"/>
	</linearGradient>
	<path style="fill:url(#SVGID_00000155825345001326607050000017938890846928853676_);" d="M304.8,78.6c-10.1-0.6-20.2-1.2-30.4-1.6
		c-0.8,0-1.9,0.8-2.4,1.5c-2.6,3.9-5.2,7.9-7.7,11.8c-0.3,0-0.6-0.1-0.9-0.1c-4,0-7.3,3.3-7.3,7.3c0,4,3.3,7.3,7.3,7.3
		s7.3-3.3,7.3-7.3c0-1.1-0.2-2.1-0.7-3.1c1.9-2.9,3.8-5.8,5.6-8.6c0.5-0.7,1.3-1.7,2-1.7c2.3-0.1,4.7,0.2,7.5,0.3
		c-0.9,1.3-1.4,2.1-1.9,2.9c-4.2,6.4-8.4,12.8-12.5,19.3c-0.5,0.8-1.2,2.1-0.9,2.8c0.8,2.1,2,4,3.3,6.5c0.8-1.2,1.3-2,1.8-2.8
		c5.1-7.9,10.4-15.6,15.3-23.6c2.1-3.6,4.4-5.3,8.6-4.4c1,0.2,2.6-0.2,3.2-0.9c1.4-1.5,2.3-3.4,3.5-5.1
		C305.1,78.8,305,78.6,304.8,78.6z M267.8,97.8c-0.2,2.3-2.1,4.1-4.4,4.1c-2.4,0-4.4-2-4.4-4.4c0-2.2,1.6-4,3.7-4.4
		c0.2,0,0.5-0.1,0.8-0.1c2.4,0,4.4,2,4.4,4.4C267.8,97.6,267.8,97.7,267.8,97.8z"/>
</g>
<g transform="matrix(1 0 0 1 182 -326)">
	
		<linearGradient id="SVGID_00000146474796910159604970000006417140622202426261_" gradientUnits="userSpaceOnUse" x1="65.0655" y1="-413.1617" x2="65.0655" y2="-413.1617" gradientTransform="matrix(0.1372 0 0 -0.1372 -100.9342 281.2798)">
		<stop  offset="0" style="stop-color:#7F00FF"/>
		<stop  offset="1" style="stop-color:#E100FF"/>
	</linearGradient>
	<path style="fill:url(#SVGID_00000146474796910159604970000006417140622202426261_);" d="M-92,338L-92,338L-92,338L-92,338z"/>
</g>
<g transform="matrix(1 0 0 1 185.78720178544012 -185.85000000000002)">
	
		<linearGradient id="SVGID_00000027578074789860441570000007590351648002736559_" gradientUnits="userSpaceOnUse" x1="41.0971" y1="-573.493" x2="1041.097" y2="-1573.493" gradientTransform="matrix(0.1372 0 0 -0.1372 -120.7262 114.7714)">
		<stop  offset="0" style="stop-color:#7F00FF"/>
		<stop  offset="1" style="stop-color:#E100FF"/>
	</linearGradient>
	<path style="fill:url(#SVGID_00000027578074789860441570000007590351648002736559_);" d="M-78.6,214c-2.2-4-4.4-8-6.7-12
		c0.8-1.2,1.2-2.6,1.2-4.1c0-4-3.3-7.3-7.3-7.3s-7.3,3.3-7.3,7.3c0,3.9,3.2,7.2,7.1,7.3c1.6,2.9,3.2,5.7,4.7,8.5
		c0.4,0.8,0.9,1.9,0.6,2.6c-1,2.1-2.3,4.1-3.8,6.5c-0.8-1.4-1.2-2.2-1.7-3c-3.8-6.7-7.5-13.4-11.3-20c-0.5-0.9-1.3-2-2-2.1
		c-2.2-0.3-4.5-0.1-7.3-0.1c0.7,1.3,1.2,2.1,1.6,2.9c4.6,8.2,9,16.5,13.9,24.5c2.2,3.5,2.7,6.4-0.1,9.7c-0.6,0.8-1,2.3-0.7,3.3
		c0.7,1.9,1.9,3.7,3,5.4c0.4-0.2,0.6-0.2,0.7-0.4c5.2-8.7,10.4-17.4,15.5-26.2C-78,216.2-78.2,214.8-78.6,214z M-87.1,199.1
		c-0.5,1.9-2.2,3.3-4.3,3.3c-0.8,0-1.5-0.2-2.1-0.5c-1.4-0.8-2.3-2.2-2.3-3.9c0-0.1,0-0.1,0-0.2l0,0l0,0c0.1-2.4,2-4.3,4.4-4.3
		c2.4,0,4.4,2,4.4,4.4C-86.9,198.4-87,198.8-87.1,199.1z"/>
</g>
<g transform="matrix(1 0 0 1 198.22748855317377 233.9947077042104)">
	<path class="st9" d="M-109.6-160.3L-109.6-160.3c0.8,0,1.4,0,1.9-0.1c0.5-0.1,0.8-0.2,1-0.3c0.2-0.1,0.4-0.3,0.4-0.4
		c0.1-0.2,0.1-0.3,0.1-0.4l0,0c0-0.3-0.1-0.5-0.2-0.6c-0.1-0.2-0.3-0.3-0.6-0.4c-0.3-0.1-0.6-0.1-1.1-0.2c-0.4,0-1-0.1-1.6-0.1l0,0
		c-0.4,0-0.8,0-1.3-0.1c-0.5,0-1-0.1-1.5-0.2c-0.5-0.1-1.1-0.2-1.6-0.4c-0.5-0.2-1-0.4-1.4-0.8c-0.4-0.3-0.7-0.8-1-1.2
		c-0.2-0.5-0.4-1.1-0.4-1.8l0,0v-0.3c0-0.6,0.1-1.2,0.3-1.8c0.2-0.6,0.6-1.1,1.2-1.5c0.6-0.4,1.3-0.8,2.2-1c0.9-0.3,2.1-0.4,3.5-0.4
		l0,0h0.8c1,0,2,0.1,3,0.2c1,0.1,1.9,0.3,2.8,0.5l0,0v3.6c-1.1-0.3-2.1-0.5-3.2-0.6c-1.1-0.1-2.1-0.2-3.2-0.2l0,0
		c-0.8,0-1.4,0-1.9,0.1c-0.5,0.1-0.8,0.2-1,0.3c-0.2,0.1-0.4,0.3-0.4,0.4c-0.1,0.1-0.1,0.3-0.1,0.4l0,0c0,0.3,0.1,0.5,0.2,0.6
		c0.1,0.2,0.3,0.3,0.6,0.4c0.3,0.1,0.6,0.1,1.1,0.2c0.4,0,1,0.1,1.6,0.1l0,0c0.4,0,0.8,0,1.3,0.1c0.5,0,1,0.1,1.5,0.2
		c0.5,0.1,1.1,0.2,1.6,0.4c0.5,0.2,1,0.5,1.4,0.8c0.4,0.3,0.7,0.8,1,1.3c0.3,0.5,0.4,1.1,0.4,1.8l0,0v0.3c0,0.6-0.1,1.2-0.3,1.8
		c-0.2,0.6-0.6,1.1-1.2,1.5c-0.6,0.4-1.3,0.8-2.2,1.1c-0.9,0.3-2.1,0.4-3.5,0.4l0,0h-0.8c-1.2,0-2.3-0.1-3.4-0.2
		c-1.1-0.1-2.2-0.3-3.2-0.5l0,0v-3.7c1.2,0.3,2.4,0.5,3.7,0.7C-111.9-160.4-110.7-160.3-109.6-160.3z"/>
	<path class="st9" d="M-81.4-167.1v0.9c0,0.7-0.1,1.4-0.3,2.1c-0.2,0.6-0.5,1.2-0.9,1.7c-0.4,0.5-1,0.9-1.8,1.1
		c-0.8,0.3-1.7,0.4-2.9,0.4l0,0h-0.6c-0.8,0-1.6,0-2.3,0c-0.8,0-1.5-0.1-2.2-0.2l0,0v4h-4V-172c1.3-0.2,2.6-0.3,4-0.3
		c1.4-0.1,2.8-0.1,4.1-0.1l0,0h0.6c1.2,0,2.3,0.1,3.1,0.4c0.8,0.3,1.5,0.7,2,1.1c0.5,0.5,0.8,1,1,1.7
		C-81.5-168.5-81.4-167.9-81.4-167.1L-81.4-167.1z M-88.5-164.5L-88.5-164.5c0.8,0,1.4-0.1,1.8-0.2c0.4-0.1,0.7-0.3,0.9-0.5
		c0.2-0.2,0.3-0.4,0.3-0.7c0-0.3,0-0.6,0-0.9l0,0c0-0.3,0-0.6,0-0.9c0-0.3-0.1-0.5-0.3-0.7c-0.2-0.2-0.5-0.3-0.9-0.4
		c-0.4-0.1-1-0.2-1.7-0.2l0,0c-0.5,0-1.1,0-1.8,0c-0.8,0-1.5,0.1-2.2,0.2l0,0v4c0.7,0.1,1.3,0.1,2,0.2
		C-89.9-164.5-89.2-164.5-88.5-164.5z"/>
	<path class="st9" d="M-71.3-157.2v-5.5l-5.8-8.4v-0.9h3.9l3.9,6.1l3.9-6.1h3.9v0.9l-5.8,8.4v5.5H-71.3z"/>
	<path class="st9" d="M-41.4-157.2h-3.8l-3-4.6c-0.8,0-1.6,0-2.3,0c-0.7,0-1.5-0.1-2.2-0.2l0,0v4.9h-4V-172c1.3-0.2,2.6-0.3,4-0.3
		c1.4-0.1,2.8-0.1,4.1-0.1l0,0h0.6c1.2,0,2.3,0.1,3.1,0.4c0.8,0.3,1.5,0.6,2,1c0.5,0.4,0.8,1,1,1.6c0.2,0.6,0.3,1.2,0.3,1.9l0,0v0.9
		c0,0.9-0.2,1.8-0.5,2.5c-0.4,0.8-1,1.3-2,1.8l0,0l2.7,4.3V-157.2z M-48.5-168.9L-48.5-168.9c-0.5,0-1.2,0-1.9,0
		c-0.8,0-1.5,0.1-2.2,0.2l0,0v3.1c0.7,0.1,1.3,0.1,2,0.2c0.6,0,1.1,0,1.5,0l0,0c0.9,0,1.6,0,2.1-0.1c0.5-0.1,0.8-0.2,1.1-0.4
		c0.2-0.2,0.4-0.4,0.4-0.6c0-0.3,0.1-0.6,0.1-0.9l0,0c0-0.2,0-0.4,0-0.6c0-0.2-0.1-0.4-0.3-0.5c-0.2-0.1-0.5-0.3-0.9-0.3
		C-47.3-168.9-47.8-168.9-48.5-168.9z"/>
	<path class="st9" d="M-32.9-157.2h-3.6v-0.9l6.6-13.9h4l6.6,13.9v0.9h-3.6l-1.3-2.9h-7.4L-32.9-157.2z M-30.1-163.4h4.5l-2.2-5.1
		L-30.1-163.4z"/>
	<path class="st9" d="M0-157.2h-14.2V-172h4v11.3H0V-157.2z"/>
	<path class="st9" d="M12.7-160.3L12.7-160.3c0.8,0,1.4,0,1.9-0.1c0.5-0.1,0.8-0.2,1-0.3s0.4-0.3,0.4-0.4c0.1-0.2,0.1-0.3,0.1-0.4
		l0,0c0-0.3-0.1-0.5-0.2-0.6c-0.1-0.2-0.3-0.3-0.6-0.4c-0.3-0.1-0.6-0.1-1.1-0.2c-0.4,0-1-0.1-1.6-0.1l0,0c-0.4,0-0.8,0-1.3-0.1
		c-0.5,0-1-0.1-1.5-0.2c-0.5-0.1-1.1-0.2-1.6-0.4c-0.5-0.2-1-0.4-1.4-0.8c-0.4-0.3-0.7-0.8-1-1.2c-0.2-0.5-0.4-1.1-0.4-1.8l0,0v-0.3
		c0-0.6,0.1-1.2,0.3-1.8C6-170,6.4-170.6,7-171c0.6-0.4,1.3-0.8,2.2-1c0.9-0.3,2.1-0.4,3.5-0.4l0,0h0.8c1,0,2,0.1,3,0.2
		c1,0.1,1.9,0.3,2.8,0.5l0,0v3.6c-1.1-0.3-2.1-0.5-3.2-0.6c-1.1-0.1-2.1-0.2-3.2-0.2l0,0c-0.8,0-1.4,0-1.9,0.1
		c-0.5,0.1-0.8,0.2-1,0.3c-0.2,0.1-0.4,0.3-0.4,0.4c-0.1,0.1-0.1,0.3-0.1,0.4l0,0c0,0.3,0.1,0.5,0.2,0.6c0.1,0.2,0.3,0.3,0.6,0.4
		c0.3,0.1,0.6,0.1,1.1,0.2c0.4,0,1,0.1,1.6,0.1l0,0c0.4,0,0.8,0,1.3,0.1c0.5,0,1,0.1,1.5,0.2c0.5,0.1,1.1,0.2,1.6,0.4
		c0.5,0.2,1,0.5,1.4,0.8c0.4,0.3,0.7,0.8,1,1.3c0.3,0.5,0.4,1.1,0.4,1.8l0,0v0.3c0,0.6-0.1,1.2-0.3,1.8c-0.2,0.6-0.6,1.1-1.2,1.5
		c-0.6,0.4-1.3,0.8-2.2,1.1c-0.9,0.3-2.1,0.4-3.5,0.4l0,0H12c-1.2,0-2.3-0.1-3.4-0.2c-1.1-0.1-2.2-0.3-3.2-0.5l0,0v-3.7
		c1.2,0.3,2.4,0.5,3.7,0.7C10.4-160.4,11.6-160.3,12.7-160.3z"/>
</g>
</svg>