<svg width="24" height="24" viewBox="0 0 24 24" fill="none" xmlns="http://www.w3.org/2000/svg">
<path fill-rule="evenodd" clip-rule="evenodd" d="M12 24C18.6274 24 24 18.6274 24 12C24 5.37256 18.6274 0 12 0C5.37256 0 0 5.37256 0 12C0 18.6274 5.37256 24 12 24ZM5.51318 7.52295C5.84131 7.18872 6.28613 7.00049 6.75 7H17.25C17.7139 7.00049 18.1587 7.18872 18.4868 7.52295C18.8149 7.85742 18.9995 8.31079 19 8.78394V16.429C18.9995 16.9019 18.8149 17.3552 18.4868 17.6897C18.1587 18.0242 17.7139 18.2122 17.25 18.2126H6.75C6.49121 18.2124 6.23828 18.1538 6.0083 18.0439C5.82617 17.957 5.6582 17.8376 5.51318 17.6897C5.18506 17.3552 5.00049 16.9019 5 16.429V8.78394C5.00049 8.31079 5.18506 7.85742 5.51318 7.52295ZM12.3066 13.5183L16.8066 9.95068C16.9097 9.86694 16.9756 9.74561 16.9912 9.61255C17.0063 9.47949 16.9697 9.3457 16.8892 9.23999C16.8086 9.13428 16.6904 9.06494 16.5601 9.04761C16.4297 9.03003 16.2979 9.06543 16.1934 9.146L12 12.4705L7.80664 9.146C7.75537 9.10376 7.6958 9.07251 7.63184 9.05396C7.56836 9.0354 7.50146 9.02979 7.43604 9.03784C7.37012 9.04565 7.30664 9.06689 7.24854 9.1001C7.19092 9.1333 7.14062 9.17773 7.09961 9.2312C7.05908 9.28442 7.0293 9.34546 7.01172 9.41064C6.99463 9.47583 6.99023 9.54395 6.99854 9.61084C7.00244 9.64185 7.00928 9.67261 7.01904 9.70215C7.03027 9.73633 7.04492 9.76929 7.0625 9.80054C7.0957 9.85889 7.14014 9.90991 7.19336 9.95068L11.6934 13.5183C11.7808 13.5879 11.8887 13.6257 12 13.6257C12.1113 13.6257 12.2192 13.5879 12.3066 13.5183Z" fill="white"/>
</svg>
