<svg width="39" height="39" viewBox="0 0 39 39" fill="none" xmlns="http://www.w3.org/2000/svg">
<path fill-rule="evenodd" clip-rule="evenodd" d="M19.5 39C30.2695 39 39 30.2695 39 19.5C39 8.73047 30.2695 0 19.5 0C8.73047 0 0 8.73047 0 19.5C0 30.2695 8.73047 39 19.5 39ZM27.3516 30.3899L30.5591 27.1843C31.0483 26.677 30.9771 25.843 30.2935 25.4114L25.6392 22.6431H25.6152C25.1089 22.3472 24.4248 22.5239 23.9512 22.886L22.5762 24.2944C22.4268 24.4346 22.1704 24.4138 21.9614 24.3552C20.5537 24.0559 19.4146 22.9543 18.373 21.947C18.1626 21.7437 17.9565 21.5442 17.7529 21.356C16.5405 20.2351 15.1675 18.6062 14.7144 16.8391C14.7158 16.7144 14.7622 16.5996 14.835 16.499L16.0166 15.3091C16.4219 14.8918 16.5776 14.2661 16.3062 13.6819L13.7256 8.7522C13.2993 8.0874 12.6553 7.88989 11.9893 8.46069L8.78174 11.6907C8.31641 12.1199 8.13818 12.7732 8.13086 13.4392C8.04541 15.2092 8.93799 17.2324 9.69824 18.8181C11.6812 22.5999 14.8403 25.729 18.2837 28.2529C20.3813 29.6262 22.936 30.9639 25.6392 31.0457C26.2505 31.0449 26.8779 30.8792 27.3516 30.3899Z" fill="white"/>
</svg>
