<svg width="40" height="40" viewBox="0 0 40 40" fill="none" xmlns="http://www.w3.org/2000/svg">
<path d="M35.3825 33.5689L29.8375 37.9359C29.0161 38.6053 28.0157 38.7465 27.0708 38.6357C22.9081 38.0143 19.2042 35.4787 16.2136 32.9714C11.3539 28.4397 7.0441 23.0241 4.6722 16.8157C3.78729 14.2254 2.77878 10.9346 3.23486 8.21439C3.3686 7.18663 3.7636 6.20922 4.56165 5.63114L10.1111 1.22658C11.2451 0.466401 12.2045 0.88944 12.7415 1.99514L15.8267 10.0877C16.1395 11.0401 15.784 11.9788 15.0812 12.5496L13.0367 14.1723C12.9055 14.3146 12.8127 14.4832 12.788 14.6757C13.1646 17.4902 14.9881 20.2593 16.6571 22.2141C18.3261 24.1689 20.0627 26.755 22.6122 27.6208C22.9247 27.7499 23.3169 27.8288 23.5738 27.6396L25.9566 25.7144C26.7554 25.2419 27.8453 25.0939 28.5731 25.6439L28.6103 25.6484L35.2972 30.7802C36.2743 31.5724 36.2316 32.8743 35.3825 33.5689Z" fill="white"/>
</svg>
