<?xml version="1.0" encoding="utf-8"?>
<svg width="33.222168px" height="26px" viewBox="0 0 33.222168 26" version="1.1" xmlns:xlink="http://www.w3.org/1999/xlink" xmlns="http://www.w3.org/2000/svg">
  <path d="M0 0L0 14.4444L7.94444 14.4444L7.94444 15.8889C7.94444 18.6762 6.32509 20.9444 4.33333 20.9444L3.61111 20.9444L3.61111 26L4.33333 26C9.90799 26 14.4444 21.4635 14.4444 15.8889L14.4444 0L0 0ZM18.7778 0L18.7778 14.4444L26.7223 14.4444L26.7223 15.8889C26.7223 18.6762 25.1029 20.9444 23.1112 20.9444L22.3889 20.9444L22.3889 26L23.1112 26C28.6858 26 33.2223 21.4635 33.2223 15.8889L33.2223 0L18.7778 0Z" id="Forme" fill="#F7BF5B" fill-rule="evenodd" stroke="none" />
</svg>