<?xml version="1.0" encoding="utf-8"?>
<svg width="994px" height="863px" viewBox="0 0 994 863.36816" version="1.1" xmlns:xlink="http://www.w3.org/1999/xlink" xmlns="http://www.w3.org/2000/svg">
  <g id="Group-40" transform="translate(-263 555);rotate(180)">
    <g id="Group-35" transform="translate(219.70215 25.664959)">
      <path d="M244.345 30.6707L127.636 30.6707C126.133 30.6707 124.756 29.8364 123.968 28.5561C119.699 21.6196 104.116 0 75.7378 0C44.9226 0 21.669 23.0317 20.6558 53.8302C19.6441 84.5822 44.9692 110.164 75.7378 110.164C99.7317 110.164 117.367 93.3586 122.066 88.379C122.878 87.5183 123.992 87.0046 125.176 87.0046L218.017 87.0046C219.447 87.0046 220.768 87.768 221.482 89.0069L247.541 134.211C249.079 136.878 247.154 140.209 244.076 140.209L28.1619 140.209C26.633 140.209 25.2379 141.08 24.5672 142.454L2.80876 187.033C1.5118 189.69 3.44657 192.787 6.4034 192.787L280.315 192.787C281.563 192.787 282.74 193.37 283.496 194.362L319.277 241.287C320.033 242.279 321.21 242.862 322.458 242.862L366.016 242.862C369.12 242.862 371.041 239.481 369.452 236.814L247.781 32.6232C247.059 31.4124 245.754 30.6707 244.345 30.6707L244.345 30.6707Z" id="Vector-3" fill="#8C53FF" fill-opacity="0.078431375" fill-rule="evenodd" stroke="none" />
      <path d="M110.79 54.4566C110.79 73.8154 95.0967 89.5088 75.7379 89.5088C56.3791 89.5088 40.6857 73.8154 40.6857 54.4566C40.6857 35.0978 56.3791 19.4044 75.7379 19.4044C95.0967 19.4044 110.79 35.0978 110.79 54.4566L110.79 54.4566Z" id="Ellipse-12" fill="#10002B" fill-rule="evenodd" stroke="none" />
    </g>
    <g id="Group-38" transform="matrix(0.50735563 0.8617368 -0.8617368 0.50735563 711.28046 0)">
      <path d="M244.345 30.6707L127.636 30.6707C126.133 30.6707 124.756 29.8364 123.968 28.5561C119.699 21.6196 104.116 0 75.7378 0C44.9226 0 21.669 23.0317 20.6558 53.8302C19.6441 84.5822 44.9692 110.164 75.7378 110.164C99.7317 110.164 117.367 93.3586 122.066 88.379C122.878 87.5183 123.992 87.0046 125.176 87.0046L218.017 87.0046C219.447 87.0046 220.768 87.768 221.482 89.0069L247.541 134.211C249.079 136.878 247.154 140.209 244.076 140.209L28.1619 140.209C26.633 140.209 25.2379 141.08 24.5672 142.454L2.80876 187.033C1.5118 189.69 3.44657 192.787 6.4034 192.787L280.315 192.787C281.563 192.787 282.74 193.37 283.496 194.362L319.277 241.287C320.033 242.279 321.21 242.862 322.458 242.862L366.016 242.862C369.12 242.862 371.041 239.481 369.452 236.814L247.781 32.6232C247.059 31.4124 245.754 30.6707 244.345 30.6707L244.345 30.6707Z" id="Vector-3" fill="#8C53FF" fill-opacity="0.078431375" fill-rule="evenodd" stroke="none" />
      <path d="M110.79 54.456C110.79 73.8148 95.0969 89.5082 75.7381 89.5082C56.3793 89.5082 40.6859 73.8148 40.6859 54.456C40.6859 35.0972 56.3793 19.4038 75.7381 19.4038C95.0969 19.4038 110.79 35.0972 110.79 54.456L110.79 54.456Z" id="Ellipse-12" fill="#10002B" fill-rule="evenodd" stroke="none" />
    </g>
    <g id="Group-36" transform="matrix(0.54578227 -0.83792704 0.83792704 0.54578227 0 434.02515)">
      <path d="M244.345 30.6707L127.636 30.6707C126.133 30.6707 124.756 29.8364 123.968 28.5561C119.699 21.6196 104.116 0 75.7378 0C44.9226 0 21.669 23.0317 20.6558 53.8302C19.6441 84.5822 44.9692 110.164 75.7378 110.164C99.7317 110.164 117.367 93.3586 122.066 88.379C122.878 87.5183 123.992 87.0046 125.176 87.0046L218.017 87.0046C219.447 87.0046 220.768 87.768 221.482 89.0069L247.541 134.211C249.079 136.878 247.154 140.209 244.076 140.209L28.1619 140.209C26.633 140.209 25.2379 141.08 24.5672 142.454L2.80876 187.033C1.5118 189.69 3.44657 192.787 6.4034 192.787L280.315 192.787C281.563 192.787 282.74 193.37 283.496 194.362L319.277 241.287C320.033 242.279 321.21 242.862 322.458 242.862L366.016 242.862C369.12 242.862 371.041 239.481 369.452 236.814L247.781 32.6232C247.059 31.4124 245.754 30.6707 244.345 30.6707L244.345 30.6707Z" id="Vector-3" fill="#8C53FF" fill-opacity="0.078431375" fill-rule="evenodd" stroke="none" />
      <path d="M110.789 54.4562C110.789 73.815 95.0959 89.5084 75.7371 89.5084C56.3783 89.5084 40.6849 73.815 40.6849 54.4562C40.6849 35.0974 56.3783 19.404 75.7371 19.404C95.0959 19.404 110.789 35.0974 110.789 54.4562L110.789 54.4562Z" id="Ellipse-12" fill="#10002B" fill-rule="evenodd" stroke="none" />
    </g>
    <g id="Group-37" transform="matrix(-0.48397875 -0.87507975 0.87507975 -0.48397875 253.15898 863.36816)">
      <path d="M244.345 30.6707L127.636 30.6707C126.133 30.6707 124.756 29.8364 123.968 28.5561C119.699 21.6196 104.116 1.23689e-14 75.7378 8.91813e-15C44.9226 5.17098e-15 21.669 23.0317 20.6558 53.8302C19.6441 84.5822 44.9692 110.164 75.7378 110.164C99.7317 110.164 117.367 93.3586 122.066 88.379C122.878 87.5183 123.992 87.0046 125.176 87.0046L218.017 87.0046C219.447 87.0046 220.768 87.768 221.482 89.0069L247.541 134.211C249.079 136.878 247.154 140.209 244.076 140.209L28.1619 140.209C26.633 140.209 25.2379 141.08 24.5672 142.454L2.80876 187.033C1.5118 189.69 3.44657 192.787 6.4034 192.787L280.315 192.787C281.563 192.787 282.74 193.37 283.496 194.362L319.277 241.287C320.033 242.279 321.21 242.862 322.458 242.862L366.016 242.862C369.12 242.862 371.041 239.481 369.452 236.814L247.781 32.6232C247.059 31.4124 245.754 30.6707 244.345 30.6707L244.345 30.6707Z" id="Vector-3" fill="#8C53FF" fill-opacity="0.078431375" fill-rule="evenodd" stroke="none" />
      <path d="M110.79 54.4558C110.79 73.8146 95.0966 89.508 75.7378 89.508C56.379 89.508 40.6856 73.8146 40.6856 54.4558C40.6856 35.097 56.379 19.4036 75.7378 19.4036C95.0966 19.4036 110.79 35.097 110.79 54.4558L110.79 54.4558Z" id="Ellipse-12" fill="#10002B" fill-rule="evenodd" stroke="none" />
    </g>
    <g id="Group-39" transform="matrix(-0.99999964 -0.0008814464 0.0008814464 -0.99999964 744.8598 837.826)">
      <path d="M244.345 30.6707L127.636 30.6707C126.133 30.6707 124.756 29.8364 123.968 28.5561C119.699 21.6196 104.116 2.41581e-17 75.7378 1.74182e-17C44.9226 1.00996e-17 21.669 23.0317 20.6558 53.8302C19.6441 84.5822 44.9692 110.164 75.7378 110.164C99.7317 110.164 117.367 93.3586 122.066 88.379C122.878 87.5183 123.992 87.0046 125.176 87.0046L218.017 87.0046C219.447 87.0046 220.768 87.768 221.482 89.0069L247.541 134.211C249.079 136.878 247.154 140.209 244.076 140.209L28.1619 140.209C26.633 140.209 25.2379 141.08 24.5672 142.454L2.80876 187.033C1.5118 189.69 3.44657 192.787 6.4034 192.787L280.315 192.787C281.563 192.787 282.74 193.37 283.496 194.362L319.277 241.287C320.033 242.279 321.21 242.862 322.458 242.862L366.016 242.862C369.12 242.862 371.041 239.481 369.452 236.814L247.781 32.6232C247.059 31.4124 245.754 30.6707 244.345 30.6707L244.345 30.6707Z" id="Vector-3" fill="#8C53FF" fill-opacity="0.078431375" fill-rule="evenodd" stroke="none" />
      <path d="M110.79 54.4561C110.79 73.8149 95.0967 89.5083 75.7379 89.5083C56.3791 89.5083 40.6857 73.8149 40.6857 54.4561C40.6857 35.0973 56.3791 19.4039 75.7379 19.4039C95.0967 19.4039 110.79 35.0973 110.79 54.4561L110.79 54.4561Z" id="Ellipse-12" fill="#10002B" fill-rule="evenodd" stroke="none" />
    </g>
    <g id="Group-40" transform="matrix(-0.5267075 0.8500467 -0.8500467 -0.5267075 994 414.41043)">
      <path d="M244.345 30.6707L127.636 30.6707C126.133 30.6707 124.756 29.8364 123.968 28.5561C119.699 21.6196 104.116 3.42288e-14 75.7378 3.75009e-14C44.9226 4.1054e-14 21.669 23.0317 20.6558 53.8302C19.6441 84.5822 44.9692 110.164 75.7378 110.164C99.7317 110.164 117.367 93.3586 122.066 88.379C122.878 87.5183 123.992 87.0046 125.176 87.0046L218.017 87.0046C219.447 87.0046 220.768 87.768 221.482 89.0069L247.541 134.211C249.079 136.878 247.154 140.209 244.076 140.209L28.1619 140.209C26.633 140.209 25.2379 141.08 24.5672 142.454L2.80876 187.033C1.5118 189.69 3.44657 192.787 6.4034 192.787L280.315 192.787C281.563 192.787 282.74 193.37 283.496 194.362L319.277 241.287C320.033 242.279 321.21 242.862 322.458 242.862L366.016 242.862C369.12 242.862 371.041 239.481 369.452 236.814L247.781 32.6232C247.059 31.4124 245.754 30.6707 244.345 30.6707L244.345 30.6707Z" id="Vector-3" fill="#8C53FF" fill-opacity="0.078431375" fill-rule="evenodd" stroke="none" />
      <path d="M110.79 54.4566C110.79 73.8154 95.0963 89.5088 75.7375 89.5088C56.3787 89.5088 40.6853 73.8154 40.6853 54.4566C40.6853 35.0978 56.3787 19.4044 75.7375 19.4044C95.0963 19.4044 110.79 35.0978 110.79 54.4566L110.79 54.4566Z" id="Ellipse-12" fill="#10002B" fill-rule="evenodd" stroke="none" />
    </g>
  </g>
</svg>
