<svg width="21" height="15" viewBox="0 0 21 15" fill="none" xmlns="http://www.w3.org/2000/svg">
<path d="M14.25 15H1.5C1.10218 15 0.720644 14.842 0.43934 14.5607C0.158035 14.2794 0 13.8978 0 13.5V1.5C0 1.10218 0.158035 0.720644 0.43934 0.43934C0.720644 0.158035 1.10218 0 1.5 0H14.25C14.6478 0 15.0294 0.158035 15.3107 0.43934C15.592 0.720644 15.75 1.10218 15.75 1.5V4.545L19.815 1.6425C19.9269 1.5628 20.0586 1.51538 20.1957 1.50543C20.3327 1.49547 20.4699 1.52336 20.5922 1.58605C20.7144 1.64874 20.8171 1.74382 20.8891 1.8609C20.961 1.97799 20.9994 2.11259 21 2.25V12.75C20.9994 12.8874 20.961 13.022 20.8891 13.1391C20.8171 13.2562 20.7144 13.3513 20.5922 13.414C20.4699 13.4766 20.3327 13.5045 20.1957 13.4946C20.0586 13.4846 19.9269 13.4372 19.815 13.3575L15.75 10.455V13.5C15.75 13.8978 15.592 14.2794 15.3107 14.5607C15.0294 14.842 14.6478 15 14.25 15ZM1.5 1.5V13.5H14.25V9C14.2506 8.86259 14.289 8.72799 14.3609 8.6109C14.4329 8.49382 14.5356 8.39874 14.6578 8.33605C14.7801 8.27336 14.9173 8.24547 15.0543 8.25543C15.1914 8.26538 15.3231 8.3128 15.435 8.3925L19.5 11.295V3.705L15.435 6.6075C15.3231 6.6872 15.1914 6.73462 15.0543 6.74457C14.9173 6.75453 14.7801 6.72664 14.6578 6.66395C14.5356 6.60126 14.4329 6.50618 14.3609 6.3891C14.289 6.27201 14.2506 6.13741 14.25 6V1.5H1.5Z" fill="white"/>
<path d="M1 14V1.5L14.5 1L15 6L20 3L19.5 12L15 9L14.5 14H1Z" fill="white"/>
</svg>
