<?xml version="1.0" encoding="utf-8"?>
<!-- Generator: Adobe Illustrator 27.1.1, SVG Export Plug-In . SVG Version: 6.00 Build 0)  -->
<svg version="1.1" id="Calque_1" xmlns="http://www.w3.org/2000/svg" xmlns:xlink="http://www.w3.org/1999/xlink" x="0px" y="0px"
	 viewBox="0 0 304 285" style="enable-background:new 0 0 304 285;" xml:space="preserve">
<style type="text/css">
	.st0{clip-path:url(#SVGID_00000036961524692419966370000002940475513747153081_);}
	.st1{fill:#FFFFFF;stroke:#FFFFFF;stroke-width:5;}
	.st2{fill:url(#SVGID_00000037659365294859231910000009810246451821103022_);}
	.st3{fill:url(#SVGID_00000062158564106300622070000004201835323007941814_);}
	.st4{fill:url(#SVGID_00000149358858953408497840000009087449216603057598_);}
	.st5{fill:url(#SVGID_00000020364201524168710350000016166881657789652397_);}
	.st6{fill:url(#SVGID_00000170273157319675335250000007666650574220889789_);}
	.st7{fill:url(#SVGID_00000172417508198963701430000007297820540584239525_);}
	.st8{fill:url(#SVGID_00000077321702417238339010000016087734219881720969_);}
	.st9{fill:url(#SVGID_00000109746477699767557940000009000149058736549779_);}
	.st10{fill:url(#SVGID_00000142147979259702262670000012497533706129086385_);}
	.st11{fill:url(#SVGID_00000029005441167650390650000004498559751643508876_);}
</style>
<g>
	<defs>
		<ellipse id="SVGID_1_" cx="83.6" cy="250.9" rx="48.7" ry="19"/>
	</defs>
	<clipPath id="SVGID_00000140712569318467504450000016212045810287489455_">
		<use xlink:href="#SVGID_1_"  style="overflow:visible;"/>
	</clipPath>
	
		<g transform="matrix(0 1 -1 0 165.57216744656688 303.77666796375274)" style="clip-path:url(#SVGID_00000140712569318467504450000016212045810287489455_);">
		
			<ellipse transform="matrix(2.535182e-06 1 -1 2.535182e-06 29.1103 134.8896)" class="st1" cx="-52.9" cy="82" rx="48.7" ry="19"/>
	</g>
</g>
<g transform="matrix(0.34080107154430445 0.003520759399611255 -0.00352075939961127 0.34080107154430445 234.39864099660244 194.8539821840806)">
	<g>
		<g transform="matrix(1 0 0 1 -70.76844598292962 -276.76772479172655)">
			
				<linearGradient id="SVGID_00000031926444760476416510000000781492382399570106_" gradientUnits="userSpaceOnUse" x1="-560.8497" y1="73.9137" x2="439.1503" y2="-926.0864" gradientTransform="matrix(0.3408 -3.521001e-03 -3.521001e-03 -0.3408 -222.0425 -252.8858)">
				<stop  offset="0" style="stop-color:#7F00FF"/>
				<stop  offset="1" style="stop-color:#E100FF"/>
			</linearGradient>
			<path style="fill:url(#SVGID_00000031926444760476416510000000781492382399570106_);" d="M-65.4-41.6
				c-36.8-64.1-73.4-128.2-110.9-191.8c-3-5-12.3-8.7-18.7-8.9c-34-0.7-68.1-0.7-102.1-0.3c-9-16.5-26.6-27.7-46.7-27.7
				c-29.3,0-53.1,23.8-53.1,53.1c0,29.3,23.8,53.1,53.1,53.1c19.9,0,37.3-11,46.4-27.3c24.2,0,47.8,0,71.4,0.3
				c6.4,0.1,15.6,1.2,18.6,5.4c9.9,13.8,17.5,29.2,27.9,47.2l-25.2,0c-55.8,0-111.6-0.2-167.4,0.3c-7.1,0.1-17.3,0.9-20.7,5.4
				c-9.7,13.1-16.6,28.2-26.4,45.8c10.5,0,17.3,0,24,0c68.4,0,136.8,1.6,205.1-0.8c30.2-1,50.2,6,61.3,35.3
				c2.6,6.9,11.2,14.9,18.2,16.1c14.7,2.5,30.1,0.8,45.1,0.8C-65.4-39-64.8-40.7-65.4-41.6z M-324.6-191.5c-5.4,4-12.1,6.4-19.3,6.4
				c-17.8,0-32.2-14.5-32.2-32.2c0-17.8,14.5-32.2,32.2-32.2c8.1,0,15.5,3,21.1,7.9c6.8,5.9,11.1,14.6,11.1,24.3
				C-311.6-206.8-316.7-197.4-324.6-191.5z"/>
		</g>
		<g transform="matrix(1 0 0 1 182 -326)">
			
				<linearGradient id="SVGID_00000113345055527698148060000007712918824667359637_" gradientUnits="userSpaceOnUse" x1="-830.746" y1="106.3685" x2="-830.746" y2="106.3685" gradientTransform="matrix(0.3408 -3.521001e-03 -3.521001e-03 -0.3408 41.3063 -119.3655)">
				<stop  offset="0" style="stop-color:#7F00FF"/>
				<stop  offset="1" style="stop-color:#E100FF"/>
			</linearGradient>
			<path style="fill:url(#SVGID_00000113345055527698148060000007712918824667359637_);" d="M-242.2-152.7L-242.2-152.7
				L-242.2-152.7L-242.2-152.7z"/>
		</g>
		<g transform="matrix(1 0 0 1 186.3999999999998 314.1)">
			
				<linearGradient id="SVGID_00000040569600304311477550000018058523248425152188_" gradientUnits="userSpaceOnUse" x1="-830.2549" y1="-528.9405" x2="169.7451" y2="-1528.9406" gradientTransform="matrix(0.3408 -3.521001e-03 -3.521001e-03 -0.3408 37.1523 -338.9276)">
				<stop  offset="0" style="stop-color:#7F00FF"/>
				<stop  offset="1" style="stop-color:#E100FF"/>
			</linearGradient>
			<path style="fill:url(#SVGID_00000040569600304311477550000018058523248425152188_);" d="M-238.8-153.9c-0.5,0.9-1,1.7-1.6,2.6
				c-1.6-1.1-3.4-2-5.2-2.8C-243.3-154-241.1-154-238.8-153.9z"/>
		</g>
		<g transform="matrix(1 0 0 1 -182.1498665903511 171.64999999999995)">
			
				<linearGradient id="SVGID_00000131363700360574445500000017334669457291581370_" gradientUnits="userSpaceOnUse" x1="-606.2689" y1="-528.0978" x2="393.7311" y2="-1528.0978" gradientTransform="matrix(0.3408 -3.521001e-03 -3.521001e-03 -0.3408 -206.4984 -480.1325)">
				<stop  offset="0" style="stop-color:#7F00FF"/>
				<stop  offset="1" style="stop-color:#E100FF"/>
			</linearGradient>
			<path style="fill:url(#SVGID_00000131363700360574445500000017334669457291581370_);" d="M-131.2-29.2
				c-31.6-60.6-61.9-122-95.6-181.5c-14.9-26.3-17.9-47.3,2.9-70.6c4.9-5.5,8-16.9,5.8-23.5c-4.6-14.2-13.2-27-20.2-40.3
				c-2.9,1.3-4.6,1.6-5.2,2.5c-39.8,62.2-79.7,124.4-118.7,187.1c-3.1,5-2.1,15,0.8,20.7c15.1,30.4,30.8,60.5,46.8,90.5
				c-6.3,8.7-10,19.4-10,31c0,29.3,23.8,53.1,53.1,53.1c29.3,0,53.1-23.8,53.1-53.1c0-28.2-22.1-51.4-50-53l0,0
				c-11.4-21.9-22.5-43.2-33.4-64.7c-2.9-5.7-6.1-14.4-3.8-19c7.6-15.1,17.8-29,28.9-46.5c5.3,10.2,8.5,16.2,11.7,22.3
				c25.8,49.5,51.5,99,77.7,148.3c3.3,6.3,8.8,15,14.3,15.8c16.1,2.5,32.7,1.7,52.8,2.2C-124.9-17.2-128-23.2-131.2-29.2z
				 M-255.1-41.2C-255.1-41.2-255-41.2-255.1-41.2c9.5,5.6,15.9,16,15.9,27.8c0,17.8-14.5,32.2-32.2,32.2
				c-17.7,0-32.2-14.5-32.2-32.2c0-3.3,0.5-6.4,1.4-9.4c4-13.2,16.3-22.8,30.8-22.8C-265.4-45.6-259.8-44-255.1-41.2z"/>
		</g>
		<g transform="matrix(1 0 0 1 259.10015698810474 27.700606660481412)">
			
				<linearGradient id="SVGID_00000093167858131287843300000005269821641548906668_" gradientUnits="userSpaceOnUse" x1="-943.5377" y1="-282.2937" x2="56.4624" y2="-1282.2937" gradientTransform="matrix(0.3408 -3.521001e-03 -3.521001e-03 -0.3408 -105.4634 -381.979)">
				<stop  offset="0" style="stop-color:#7F00FF"/>
				<stop  offset="1" style="stop-color:#E100FF"/>
			</linearGradient>
			<path style="fill:url(#SVGID_00000093167858131287843300000005269821641548906668_);" d="M-123.4-209.6
				c-29.3,0-53.1,23.8-53.1,53.1c0,11.3,3.5,21.8,9.6,30.4c-10.4,17.2-20.7,34-31.1,50.7c-3.4,5.4-9.2,12.7-14.3,13.1
				c-16.9,1.3-34-0.2-54.8-0.6c5.9-9.8,9.5-15.7,13.1-21.5c28.9-47.7,58-95.4,86.6-143.3c3.6-6.1,8.2-15.3,6.1-20.5
				c-6.2-15.1-15.5-28.8-25.5-46.3c-5.5,9-9,14.8-12.4,20.5c-35.4,58.5-72.3,116.2-105.7,175.8c-14.7,26.3-31.1,39.8-61.9,34.1
				c-7.3-1.3-18.6,1.9-23.2,7.2c-9.7,11.3-16.2,25.3-24,38.2c2.6,1.8,3.7,3.2,4.8,3.2c73.8,1.8,147.7,3.7,221.5,4.6
				c5.8,0.1,13.9-6,17.3-11.4c17-26.7,33.4-53.8,49.6-81l0,0c28-1.4,50.4-24.6,50.4-53C-70.3-185.8-94.1-209.6-123.4-209.6z
				 M-105.7-129.6c-5.1,3.4-11.1,5.3-17.7,5.3c-14.5,0-26.7-9.6-30.8-22.7c-0.9-3-1.4-6.2-1.4-9.5c0-15.7,11.3-28.9,26.3-31.7
				c0.2-0.3,0.4-0.7,0.7-1.1c0.2,0.3,0.3,0.6,0.5,0.9c1.6-0.2,3.2-0.4,4.8-0.4c17.8,0,32.2,14.5,32.2,32.2
				C-91.2-145.2-97-135.3-105.7-129.6z"/>
		</g>
		<g transform="matrix(1 0 0 1 186.40000000000003 314.1)">
			
				<linearGradient id="SVGID_00000117670454378504794930000005557428582760392360_" gradientUnits="userSpaceOnUse" x1="-830.2549" y1="-528.9405" x2="169.7451" y2="-1528.9406" gradientTransform="matrix(0.3408 -3.521001e-03 -3.521001e-03 -0.3408 37.1523 -338.9276)">
				<stop  offset="0" style="stop-color:#7F00FF"/>
				<stop  offset="1" style="stop-color:#E100FF"/>
			</linearGradient>
			<path style="fill:url(#SVGID_00000117670454378504794930000005557428582760392360_);" d="M-245.6-154.1c1.8,0.8,3.6,1.7,5.2,2.8
				c0.5-0.8,1-1.7,1.6-2.6C-241.1-154-243.3-154-245.6-154.1z"/>
		</g>
		<g transform="matrix(1 0 0 1 76.85397303578793 271.8499999999999)">
			
				<linearGradient id="SVGID_00000135692836558957630300000009995423493698837399_" gradientUnits="userSpaceOnUse" x1="-582.5534" y1="-351.3605" x2="417.4466" y2="-1351.3606" gradientTransform="matrix(0.3408 -3.521001e-03 -3.521001e-03 -0.3408 -172.8785 -446.5929)">
				<stop  offset="0" style="stop-color:#7F00FF"/>
				<stop  offset="1" style="stop-color:#E100FF"/>
			</linearGradient>
			<path style="fill:url(#SVGID_00000135692836558957630300000009995423493698837399_);" d="M-89.9-214.7c-68.3-2.2-136.7-6-205-5.8
				c-30.2,0.1-50-7.6-60.1-37.2c-2.4-7-10.8-15.3-17.7-16.6c-14.6-2.9-30-1.7-45.1-2.2c-0.3,3.2-0.9,4.8-0.4,5.8
				c34.7,65.2,69.3,130.5,104.7,195.3c2.8,5.1,12,9.1,18.4,9.5c32.4,1.7,64.8,2.7,97.2,3.5c7.8,19.6,27,33.6,49.4,33.6
				c29.3,0,53.1-23.8,53.1-53.1c0-29.3-23.8-53.1-53.1-53.1c-17.5,0-33.1,8.5-42.7,21.6c-24.2-0.8-47.8-1.6-71.3-2.6
				c-6.4-0.3-15.6-1.7-18.4-6c-9.4-14.1-16.6-29.7-26.3-48.1c11.5,0.4,18.3,0.6,25.2,0.8c55.8,1.8,111.6,3.7,167.4,5.1
				c7.1,0.2,17.4-0.3,20.8-4.7c10.1-12.8,17.5-27.7,27.9-44.9C-76.4-214.2-83.2-214.4-89.9-214.7z M-158.8-112.5
				c3.3-1.1,6.8-1.8,10.5-1.8c4.4,0,8.5,0.9,12.4,2.5l0,0l0,0c2.3,0.1,4.5,0.1,6.8,0.2c-0.5,0.9-1,1.7-1.6,2.6
				c8.8,5.8,14.6,15.7,14.6,27c0,17.8-14.5,32.2-32.2,32.2c-10.2,0-19.3-4.8-25.2-12.2c-4.4-5.5-7-12.4-7-20
				C-180.6-96.2-171.5-108.2-158.8-112.5z"/>
		</g>
		<g transform="matrix(1 0 0 1 -250.05000000000004 -46.05558208675839)">
			
				<linearGradient id="SVGID_00000171686268243378236370000004839924885525105576_" gradientUnits="userSpaceOnUse" x1="-270.4155" y1="-47.919" x2="729.5845" y2="-1047.9191" gradientTransform="matrix(0.3408 -3.521001e-03 -3.521001e-03 -0.3408 -286.8726 -355.0046)">
				<stop  offset="0" style="stop-color:#7F00FF"/>
				<stop  offset="1" style="stop-color:#E100FF"/>
			</linearGradient>
			<path style="fill:url(#SVGID_00000171686268243378236370000004839924885525105576_);" d="M-66.8-282.8
				c-73.7-4.1-147.5-8.4-221.3-11.6c-5.8-0.3-14,5.5-17.7,10.9c-19.3,28.4-38,57.2-56.4,86.1c-2.2-0.3-4.5-0.4-6.8-0.4
				c-29.3,0-53.1,23.8-53.1,53.1c0,29.3,23.8,53.1,53.1,53.1c29.3,0,53.1-23.8,53.1-53.1c0-8-1.8-15.6-5-22.4
				c13.9-21.3,27.4-42,41-62.5c3.5-5.3,9.6-12.4,14.7-12.7c16.9-0.8,34,1.2,54.7,2.4c-6.3,9.6-10,15.4-13.7,21.1
				c-30.4,46.8-61,93.5-91.1,140.5c-3.8,6-8.7,15-6.8,20.3c5.7,15.3,14.6,29.3,24,47.1c5.7-8.8,9.4-14.5,13.1-20.1
				c37.3-57.3,76-113.8,111.2-172.3c15.6-25.9,32.4-38.8,63-32.1c7.2,1.6,18.6-1.3,23.4-6.5c10.1-11,17-24.8,25.2-37.4
				C-64.7-281.4-65.7-282.7-66.8-282.8z M-336.8-142.6c-1.1,16.7-15.1,30-32.1,30c-17.8,0-32.2-14.5-32.2-32.2
				c0-15.8,11.5-29,26.6-31.7c1.8-0.3,3.7-0.5,5.6-0.5c17.8,0,32.2,14.5,32.2,32.2C-336.8-144.1-336.8-143.3-336.8-142.6z"/>
		</g>
		<g transform="matrix(1 0 0 1 182 -326)">
			
				<linearGradient id="SVGID_00000132798868546135798030000012392365093958714303_" gradientUnits="userSpaceOnUse" x1="-830.746" y1="106.3685" x2="-830.746" y2="106.3685" gradientTransform="matrix(0.3408 -3.521001e-03 -3.521001e-03 -0.3408 41.3063 -119.3655)">
				<stop  offset="0" style="stop-color:#7F00FF"/>
				<stop  offset="1" style="stop-color:#E100FF"/>
			</linearGradient>
			<path style="fill:url(#SVGID_00000132798868546135798030000012392365093958714303_);" d="M-242.2-152.7L-242.2-152.7
				L-242.2-152.7L-242.2-152.7z"/>
		</g>
		<g transform="matrix(1 0 0 1 185.78720178544012 -185.85000000000002)">
			
				<linearGradient id="SVGID_00000084510324966059521460000004242940075252868027_" gradientUnits="userSpaceOnUse" x1="-894.3557" y1="-92.3806" x2="105.6443" y2="-1092.3806" gradientTransform="matrix(0.3408 -3.521001e-03 -3.521001e-03 -0.3408 -82.0838 -359.192)">
				<stop  offset="0" style="stop-color:#7F00FF"/>
				<stop  offset="1" style="stop-color:#E100FF"/>
			</linearGradient>
			<path style="fill:url(#SVGID_00000084510324966059521460000004242940075252868027_);" d="M-121.1-174.7
				c-15.7-29.3-32.1-58.3-48.7-87.2c5.7-8.5,9.1-18.7,9.1-29.7c0-29.3-23.8-53.1-53.1-53.1c-29.3,0-53.1,23.8-53.1,53.1
				c0,28.7,23,52.2,51.5,53.1c11.8,21,23.3,41.4,34.5,61.9c3.1,5.6,6.6,14.2,4.4,18.9c-7.1,15.4-16.8,29.6-27.4,47.4
				c-5.6-10-9-16-12.4-21.9c-27.4-48.6-54.6-97.3-82.4-145.8c-3.5-6.2-9.3-14.7-14.8-15.4c-16.2-2-32.8-0.6-52.9-0.5
				c5.2,9.2,8.5,15,11.8,20.9c33.6,59.6,65.7,120,101.3,178.3C-237.6-68.9-233.9-48-254-24c-4.7,5.7-7.5,17.1-5.1,23.7
				c5.1,14,14.1,26.6,21.5,39.7c2.9-1.4,4.6-1.7,5.1-2.7c37.8-63.5,75.7-126.9,112.7-190.8C-116.7-159-118-169-121.1-174.7z
				 M-182.6-283.3c-3.6,13.8-16.2,24-31.2,24c-5.6,0-11-1.5-15.6-4c-9.9-5.5-16.6-16.1-16.6-28.2c0-0.4,0-0.8,0-1.2l0,0l0,0
				c0.7-17.2,14.9-31,32.2-31c17.8,0,32.2,14.5,32.2,32.2C-181.5-288.7-181.9-286-182.6-283.3z"/>
		</g>
	</g>
</g>
</svg>
