<svg xmlns="http://www.w3.org/2000/svg" xmlns:xlink="http://www.w3.org/1999/xlink" viewBox="0.34 6.21 133.73 133.73" width="160" h="160">
  <defs>
    <linearGradient id="b" x1="0" y1="0" x2="1" y2="0" spreadMethod="pad" xlink:href="#a">
      <stop offset="0" stop-color="#007a50"/>
      <stop offset=".6" stop-color="#7fd2a4"/>
      <stop offset="1" stop-color="#00a770"/>
    </linearGradient>
    <linearGradient id="c" gradientTransform="rotate(-90 422.919 160.228) scale(48.05893)" spreadMethod="pad" y2="0" x2="1" y1="0" x1="0" xlink:href="#a">
      <stop offset="0" stop-color="#00965e"/>
      <stop offset=".3" stop-color="#8ac9ad"/>
      <stop offset=".55" stop-color="#00965e"/>
      <stop offset=".835" stop-color="#007749"/>
      <stop offset="1" stop-color="#009f70"/>
    </linearGradient>
    <linearGradient id="a" gradientUnits="userSpaceOnUse"/>
  </defs>
  <g clip-path="url(#A)" transform="matrix(3.5166 0 0 -3.5166 -109.398 244.055)" stroke="#000">
    <g stroke-width=".008">
      <path d="M242.509 572.936h40.511v-40.512h-40.511v40.512z" fill="url(#b)" transform="translate(-196.424 -469.868) scale(.93865)"/>
      <path d="M245.668 572.376c-.785 0-1.298-.665-1.419-1.593s-1.012-5.319-1.012-16.611c0-11.298 1.012-18.69 1.012-18.69.091-.895.634-1.593 1.419-1.593h35.064c.785 0 1.408.621 1.422 1.593s-.389 8.658-.389 17.114c0 8.457.389 18.187.389 18.187.018.864-.637 1.593-1.422 1.593h-35.064z" fill="url(#c)" fill-rule="evenodd" transform="translate(-196.424 -469.868) scale(.93865)"/>
    </g>
    <path d="m61.705 58.17-5.936-3.195c1.57 1.704 2.116 2.429 3.089 3.854-2.489-.131-6.1-.43-8.678-1.002 2.244 1.2 6.698 2.533 9.046 2.85-.545.752-4.955 3.14-6.053 3.601 3.492-.273 7.76-1.575 9.829-2.842.815.255 1.66.268 3.176.402-.384-.663-.403-1.045-1.89-2.03.411-1.102-.572-7.159-1.383-8.764-.03 2.535-.251 5.734-1.2 7.126m-18.16-21.73c-1.423.53-2.45 1.144-3.581 2.203.339.932.724 1.661 1.356 2.598l-3.012-.494c-.812 1.422-1.18 2.795-1.597 4.706-.22-2.024-.304-3.47-.018-5.083-.918-.254-1.563-.477-2.319-.817l3.087-1.692a10.541 10.541 0 0 1 2.353-3.328 6.186 6.186 0 0 0-.21 2.541 14.737 14.737 0 0 1 3.942-.631m3.71 20.143a8.223 8.223 0 0 1-1.097-2.15c3.673-.498 6.62-2.385 6.62-2.385-3.211.57-4.904.498-6.103.392-1.191-.113-1.436-.253-1.436-.253-.866-1.898-1.385-5.158-1.385-5.158-.585 1.408-1.43 4.232-1.43 4.232-1.62-.867-5.348-4.373-5.348-4.373 2.049 4.104 4.13 5.972 4.13 5.972-.718.726-2.594 1.086-3.966 1.148.713.29 2.54.63 3.946.695l2.256-.04c1.255.989 3.158 1.824 3.813 1.921m3.897-17.602-1.926-2.372a11.78 11.78 0 0 0-3.428-.478 8.626 8.626 0 0 1 2.23-.77 15.185 15.185 0 0 0-2.173-1.67c1.256.293 2.907.827 4.135 1.555.642-.026 1.244.016 1.684.104a9.246 9.246 0 0 0-.279 1.135c1.156.895 1.998 1.707 2.962 2.68a20.063 20.063 0 0 0-3.097-1.807l-.108 1.624" fill="#fff" style="stroke:none" stroke="none"/>
  </g>
</svg>
