<svg xmlns="http://www.w3.org/2000/svg" xmlns:xlink="http://www.w3.org/1999/xlink" xmlns:v="https://vecta.io/nano"><style><![CDATA[.B{stroke:none}.C{font-weight:bold}.D{writing-mode:lr-tb}.E{font-family:Euro Sans}]]></style><defs><clipPath id="A"><path d="M0 17.008h595.275v56.633H0V17.008z"/></clipPath><linearGradient id="B" spreadMethod="pad" gradientTransform="matrix(0,30.285965,30.285965,0,50.358627,31.942749)" y2="0" x2="1" y1="0" x1="0" xlink:href="#c"><stop offset="0" stop-color="#00a876"/><stop offset="1" stop-color="#009357"/></linearGradient><clipPath id="C"><path d="M-.009-.141h.187v.282h-.187v-.282z"/></clipPath><clipPath id="D"><path d="M51.455 35.282l-.109 1.598h0l-1.887-2.336h0c-.757-.209-1.621-.197-2.409-.187h0l-.834.002h0l-.124-.275a8.43 8.43 0 0 1 2.189-.761h0c-.615-.556-1.433-.981-2.018-1.371h0l-.119-.273c1.231.297 2.858.816 4.064 1.537h0c.633-.028 1.226.008 1.655.092h0l.123.277h0c-.075.279-.322.446-.396.839h0c1.135.883 1.954 1.688 2.9 2.633h0l.135.272c-.938-.639-2.077-1.525-3.17-2.047"/></clipPath><linearGradient id="E" spreadMethod="pad" gradientTransform="matrix(0,30.293961,30.293961,0,45.293549,31.951248)" y2="0" x2="1" y1="0" x1="0" xlink:href="#c"><stop offset="0" stop-color="#00a876"/><stop offset="1" stop-color="#009357"/></linearGradient><clipPath id="F"><path d="M.419-.257h.316v.514H.419v-.514z"/></clipPath><clipPath id="G"><path d="M43.771 52.288s-.837.076-2.213.032h0c-1.17-.054-2.908-.157-3.752-.406h0l-.128-.273c1.351-.058 3.193-.41 3.897-1.123h0s-2.04-1.841-4.063-5.873h0s3.665 3.444 5.251 4.298h0l1.413-4.159h0l.127.272c.162.893.554 3.314 1.237 4.795h0s.235.148 1.405.264h0c1.181.1 2.845.161 6.001-.391h0l.13.275c-.719.417-3.596 1.647-6.641 2.062h0 .102c.421 1.225.938 2.146.938 2.146h0c-.64-.084-2.479-.946-3.704-1.919"/></clipPath><linearGradient id="H" spreadMethod="pad" gradientTransform="matrix(0,30.320328,30.320328,0,39.432495,31.946152)" y2="0" x2="1" y1="0" x1="0" xlink:href="#c"><stop offset="0" stop-color="#00a876"/><stop offset="1" stop-color="#009357"/></linearGradient><clipPath id="I"><path d="M.019-.151h.363v.301H.019v-.301z"/></clipPath><clipPath id="J"><path d="M37.156 43.232c-.212-1.982-.304-3.4-.017-4.983h0c-.802-.228-1.507-.265-2.155-.538h0l-.12-.273 3.032-1.661h0c.62-1.341 1.27-2.243 2.307-3.27h0l.13.271c-.19.764-.43 1.389-.334 2.222h0a14.52 14.52 0 0 1 3.881-.62h0l.122.275c-1.301.504-2.599.901-3.648 1.89h0c.331.916.712 1.637 1.329 2.546h0l.128.281c-1.111-.178-2.128-.577-3.086-.771h0c-.758 1.34-1.058 3.166-1.444 4.911h0l-.125-.28z"/></clipPath><linearGradient id="K" spreadMethod="pad" gradientTransform="matrix(0,30.308502,30.308502,0,58.242828,31.951248)" y2="0" x2="1" y1="0" x1="0" xlink:href="#c"><stop offset="0" stop-color="#00a876"/><stop offset="1" stop-color="#009357"/></linearGradient><clipPath id="L"><path d="M.554-.259h.438v.518H.554v-.518z"/></clipPath><clipPath id="M"><path d="M53.332 61.735c1.084-.456 5.415-2.8 5.952-3.541h0c-2.185-.294-6.461-1.409-8.764-2.521h0l-.134-.277c2.536.553 6.086.856 8.536.984h0c-.917-1.337-1.516-1.983-2.912-3.496h0l-.129-.292 5.839 3.135h0c.924-1.363 1.141-4.51 1.182-6.995h0c.791 1.575 1.76 7.532 1.36 8.605h0c1.617 1.115 1.838 2.011 1.838 2.011h0c-1.488-.127-2.303-.155-3.105-.413h0c-1.9 1.174-6.252 2.705-9.532 3.077h0l-.131-.277z"/></clipPath><linearGradient id="N" spreadMethod="pad" gradientTransform="matrix(0,-46.846832,-46.846832,0,50.736206,76.199616)" y2="0" x2="1" y1="0" x1="0" xlink:href="#c"><stop offset="0" stop-color="#009357"/><stop offset=".3" stop-color="#6acaab"/><stop offset=".55" stop-color="#009357"/><stop offset=".835" stop-color="#007544"/><stop offset="1" stop-color="#009d6a"/></linearGradient><clipPath id="O"><path d="M.224-.405h.801v.81H.224v-.81z"/></clipPath><clipPath id="P"><path d="M34.136 65.695c-.765 0-1.264-.647-1.384-1.554h0s-.986-5.187-.986-16.187h0c0-11.012.986-18.216.986-18.216h0c.094-.872.619-1.559 1.384-1.559h0 34.185c.762 0 1.374.611 1.386 1.559h0s-.383 8.436-.383 16.685h0c0 8.238.383 17.718.383 17.718h0c.021.843-.624 1.554-1.386 1.554h0-34.185z"/></clipPath><linearGradient id="Q" spreadMethod="pad" gradientTransform="matrix(0,-41.693131,-41.693131,0,50.799561,67.364655)" y2="0" x2="1" y1="0" x1="0" xlink:href="#c"><stop offset="0" stop-color="#007544"/><stop offset=".6" stop-color="#6acaab"/><stop offset="1" stop-color="#009357"/></linearGradient><clipPath id="R"><path d="M.023-.474h.947v.947H.023v-.947z"/></clipPath><clipPath id="S"><path d="M70.548 26.897H31.053v39.496h39.495V26.897z"/></clipPath><linearGradient id="T" spreadMethod="pad" gradientTransform="matrix(0,29.907806,29.907806,0,426.68248,31.674011)" y2="0" x2="1" y1="0" x1="0" xlink:href="#c"><stop offset="0" stop-color="#f6f7f7"/><stop offset=".3" stop-color="#d1d8db"/><stop offset=".3" stop-color="#d1d8db"/><stop offset="1" stop-color="#f6f7f7"/></linearGradient><clipPath id="U"><path d="M0-14.413h1v29.3H0v-29.3z"/></clipPath><linearGradient id="V" x1="0" y1="0" x2="1" y2="0" gradientTransform="matrix(0,-40.511764,-40.511764,0,262.76437,572.93596)" spreadMethod="pad" xlink:href="#c"><stop offset="0" stop-color="#007a50"/><stop offset=".6" stop-color="#7fd2a4"/><stop offset="1" stop-color="#00a770"/></linearGradient><linearGradient id="W" gradientTransform="matrix(0,-48.058929,-48.058929,0,262.69609,583.15227)" spreadMethod="pad" y2="0" x2="1" y1="0" x1="0" xlink:href="#c"><stop offset="0" stop-color="#00965e"/><stop offset=".3" stop-color="#8ac9ad"/><stop offset=".55" stop-color="#00965e"/><stop offset=".835" stop-color="#007749"/><stop offset="1" stop-color="#009f70"/></linearGradient><linearGradient id="X" x1="265.405" y1="559.418" x2="265.434" y2="559.418" spreadMethod="pad" xlink:href="#c"><stop offset="0" stop-color="#f1471d"/><stop offset="1" stop-color="#fab10b"/></linearGradient><linearGradient id="Y" gradientTransform="matrix(0,32.863938,32.863938,0,271.09204,536.4639)" x1="0" y1="0" x2="1" y2="0" spreadMethod="pad" xlink:href="#c"><stop offset="0" stop-color="#33b880"/><stop offset="1" stop-color="#00a770"/></linearGradient><linearGradient id="Z" gradientTransform="matrix(0,32.872276,32.872276,0,250.70205,536.46202)" x1="0" y1="0" x2="1" y2="0" spreadMethod="pad" xlink:href="#c"><stop offset="0" stop-color="#33b880"/><stop offset="1" stop-color="#00a770"/></linearGradient><linearGradient id="a" gradientTransform="matrix(0,32.857268,32.857268,0,257.05354,536.46638)" x1="0" y1="0" x2="1" y2="0" spreadMethod="pad" xlink:href="#c"><stop offset="0" stop-color="#33b880"/><stop offset="1" stop-color="#00a770"/></linearGradient><linearGradient id="b" gradientTransform="matrix(0,32.858164,32.858164,0,262.54565,536.46332)" x1="0" y1="0" x2="1" y2="0" spreadMethod="pad" xlink:href="#c"><stop offset="0" stop-color="#33b880"/><stop offset="1" stop-color="#00a770"/></linearGradient><linearGradient id="c" gradientUnits="userSpaceOnUse"/></defs><g transform="matrix(1.25 0 0 -1.25 -941.973001 280.44988)" stroke="#000"><g clip-path="url(#A)" transform="matrix(2.813304 0 0 2.813304 669.89149 29.116273)"><g transform="translate(0 2.275)"><g transform="matrix(.938649 0 0 .938649 -196.42366 -472.14295)"><g stroke-width=".008"><path d="M242.509 572.936h40.511v-40.512h-40.511v40.512z" fill="url(#V)"/><path d="M245.668 572.376c-.785 0-1.298-.665-1.419-1.593h0s-1.012-5.319-1.012-16.611h0c0-11.298 1.012-18.69 1.012-18.69h0c.091-.895.634-1.593 1.419-1.593h0 35.064c.785 0 1.408.621 1.422 1.593h0s-.389 8.658-.389 17.114h0c0 8.457.389 18.187.389 18.187h0c.018.864-.637 1.593-1.422 1.593h0-35.064z" fill="url(#W)" fill-rule="evenodd"/><path d="M265.405 559.423c.009-.004.019-.007.028-.01h0c-.009.004-.019.006-.028.01z" fill="url(#X)"/></g><g stroke-width=".011"><path d="M265.773 568.761c1.171-.49 5.868-3.029 6.445-3.841h0c-2.366-.312-7-1.519-9.496-2.732h0l-.147-.297c2.752.608 6.601.924 9.255 1.069h0c-.989-1.453-1.646-2.146-3.155-3.792h0l-.14-.319 6.329 3.399h0c1-1.478 1.241-4.887 1.281-7.587h0c.861 1.711 1.907 8.17 1.473 9.336h0c1.754 1.203 1.992 2.175 1.992 2.175h0c-1.61-.14-2.496-.167-3.365-.44h0c-2.058 1.262-6.776 2.925-10.336 3.328h0l-.137-.299z" fill="url(#Y)"/><path d="M248.236 548.703c-.232-2.154-.327-3.692-.017-5.41h0c-.872-.243-1.634-.276-2.336-.576h0l-.133-.295c1.117-.689 2.026-1.215 3.288-1.807h0c.676-1.45 1.375-2.43 2.506-3.544h0l.137.297c-.204.826-.466 1.505-.367 2.41h0a15.61 15.61 0 0 1 4.205-.676h0l.136.299c-1.406.548-2.812.976-3.949 2.048h0c.357.996.766 1.775 1.435 2.76h0l.141.305c-1.21-.183-2.303-.625-3.348-.829h0c-.826 1.446-1.143 3.429-1.559 5.315h0l-.139-.299z" fill="url(#Z)"/><path d="M255.406 558.517s-.905.084-2.4.04h0c-1.266-.058-3.152-.172-4.068-.438h0l-.133-.296c1.455-.063 3.453-.453 4.218-1.221h0s-2.123-1.923-4.261-6.069h0l-.147-.299h0s3.978 3.733 5.703 4.658h0l1.527-4.51h0l.137.301c.172.965.604 3.586 1.338 5.192h0s.261.157 1.529.28h0c1.278.116 3.08.181 6.501-.418h0l.14.296c-.774.454-3.832 1.767-7.092 2.226h0c.45 1.329 1.025 2.347 1.025 2.347h0c-.698-.096-2.688-1.029-4.018-2.088" fill="url(#a)"/><path d="M263.736 540.081l-.117 1.738h0l-2.043-2.535h0c-.805-.223-1.725-.213-2.563-.205h0a21.59 21.59 0 0 1-.958-.004h0l-.135-.299a9.08 9.08 0 0 1 2.37-.818h0c-.665-.604-1.551-1.066-2.175-1.485h0l-.14-.296c1.341.316 3.1.884 4.411 1.658h0c.682-.031 1.319.015 1.787.108h0l.143.299h0c-.088.303-.355.486-.434.91h0c1.229.953 2.118 1.823 3.147 2.857h0l.144.297c-1.017-.7-2.25-1.661-3.436-2.226" fill="url(#b)"/></g><g class="B"><path d="M275 562.551l-6.324-3.404c1.673 1.815 2.255 2.587 3.291 4.106-2.651-.14-6.499-.458-9.245-1.068 2.391 1.278 7.136 2.699 9.637 3.037-.58.801-5.279 3.345-6.448 3.836 3.72-.291 8.267-1.678 10.471-3.028.868.272 1.769.285 3.384.428-.41-.706-.43-1.113-2.014-2.163.438-1.174-.609-7.626-1.473-9.336-.033 2.7-.268 6.108-1.279 7.591m-19.346-23.149c-1.517.564-2.611 1.218-3.816 2.346.361.993.772 1.77 1.445 2.768l-3.209-.526c-.865 1.515-1.258 2.977-1.701 5.013-.235-2.156-.324-3.697-.02-5.415-.977-.271-1.665-.508-2.47-.87l3.289-1.803a11.23 11.23 0 0 1 2.507-3.545 6.59 6.59 0 0 0-.225 2.707 15.7 15.7 0 0 1 4.2-.673m3.953 21.46h0a8.76 8.76 0 0 1-1.169-2.291c3.913-.53 7.052-2.54 7.052-2.54-3.42.606-5.224.53-6.501.417-1.269-.12-1.53-.269-1.53-.269-.922-2.022-1.475-5.496-1.475-5.496-.624 1.501-1.523 4.509-1.523 4.509-1.727-.924-5.698-4.659-5.698-4.659 2.182 4.373 4.399 6.363 4.399 6.363-.764.773-2.763 1.157-4.225 1.223.76.308 2.707.67 4.204.74l2.404-.043c1.337 1.054 3.364 1.944 4.062 2.047" fill="#fff"/><path d="M263.759 542.112l-2.052-2.528a12.55 12.55 0 0 0-3.652-.509 9.19 9.19 0 0 1 2.375-.821c-.822-.744-1.517-1.275-2.315-1.779 1.338.313 3.097.882 4.406 1.657.684-.027 1.325.017 1.794.111a9.85 9.85 0 0 0-.297 1.209c1.231.954 2.128 1.819 3.155 2.856-1.092-.76-2.034-1.329-3.299-1.926l-.115 1.731" fill="#fff"/></g></g></g></g></g></svg>