<svg width="204" height="34" viewBox="0 0 204 34" fill="none" xmlns="http://www.w3.org/2000/svg">
<path d="M7 23.5C7 25.433 5.433 27 3.5 27C1.567 27 0 25.433 0 23.5C0 21.567 1.567 20 3.5 20C5.433 20 7 21.567 7 23.5Z" fill="#E65961"/>
<path d="M9.26121 19.7426L9.0834 8.72055L15.8757 26.5721H18.6139L24.0972 8.75549L24.0261 16.476C23.9905 18.7817 24.0261 21.5415 23.9549 24.3712L21.3589 24.6856V26.5721H32.7031V24.6856L30.0715 24.4061C30.0004 21.5415 30.0004 18.6419 30.0004 15.7424V14.4498C30.0004 11.5502 30.0004 8.65068 30.0715 5.78605L32.5964 5.50658V3.62012H24.446L19.0051 18.9913L13.2086 3.62012H4.66699V5.50658L7.79642 5.85592V18C7.79642 18 9 19 9.26121 19.7426Z" fill="white"/>
<path d="M47.9574 27.0612C50.0911 27.0612 51.3713 26.3275 52.2248 24.4411L51.2646 23.8123C50.8734 24.4061 50.5889 24.5808 50.1978 24.5808C49.6999 24.5808 49.4154 24.2664 49.4154 23.5677V15.7424C49.4154 11.0612 47.6017 9.13977 43.0499 9.13977C37.929 9.13977 35.0485 11.131 34.8707 14.0306C35.1552 15.1834 35.9731 15.7773 37.2533 15.7773C38.6402 15.7773 39.7782 14.8341 39.8493 12.5284L40.0271 10.9913C40.3827 10.9564 40.6672 10.9564 40.9873 10.9564C43.2632 10.9564 43.8678 11.8647 43.8678 14.9738V16.1267C42.8721 16.3712 41.8763 16.6157 41.1651 16.8254C35.6886 18.3974 34.3017 20.1441 34.3017 22.6245C34.3017 25.524 36.222 27.0961 38.9603 27.0961C41.414 27.0961 42.5164 26.1529 44.0456 24.5459C44.579 26.1529 45.8948 27.0612 47.9574 27.0612ZM39.5648 21.7162C39.5648 20.0743 40.5961 18.8865 42.1964 18.2227C42.6231 18.0481 43.2277 17.8385 43.8678 17.6289V23.3232C42.9076 23.9869 42.3742 24.2664 41.6985 24.2664C40.4894 24.2664 39.5648 23.4629 39.5648 21.7162Z" fill="white"/>
<path d="M62.5821 24.9302L60.804 24.5808C60.7684 22.869 60.7684 20.7031 60.7684 19.2358V14.5895L60.8751 9.52404L60.2706 9.13977L52.8026 11.4804V12.8428L55.0075 13.1572C55.0786 14.5546 55.1141 15.6376 55.1141 17.559V19.2358C55.1141 20.7031 55.1141 22.8341 55.0786 24.5109L53.1583 24.9302V26.5721H62.5821V24.9302Z" fill="white"/>
<path d="M73.1583 10.9564C74.4741 10.9564 75.5765 12.0743 75.5765 14.3799C75.5765 15.952 75.1142 16.5808 73.4073 16.5808H70.3845C70.5268 12.3188 71.807 10.9564 73.1583 10.9564ZM73.5139 9.13977C68.9265 9.13977 64.3746 12.3188 64.3746 18.1529C64.3746 23.7773 68.0375 27.0961 73.2295 27.0961C76.6789 27.0961 79.2394 25.7686 80.6974 23.0088L79.4527 21.8909C78.3859 22.9738 77.0701 23.7773 75.1498 23.7773C72.6605 23.7773 70.6335 22.1005 70.3845 18.3974H80.6618C80.8041 17.8385 80.8752 17.2795 80.8752 16.5459C80.8752 12.3188 78.2081 9.13977 73.5139 9.13977Z" fill="white"/>
<path d="M101.763 26.607V24.9651L99.9136 24.5808V14.6594L100.02 9.73365L99.4513 9.34937L92.3746 10.4673V11.8297L94.3305 12.2489L94.1882 22.1354C93.228 23.0437 92.1256 23.7075 91.1299 23.7075C89.9208 23.7075 89.2096 23.0088 89.2096 20.8428V14.6594L89.3874 9.73365L88.8184 9.34937L81.5638 10.3625V11.8297L83.6264 12.2839L83.4842 20.8079C83.413 25.4192 85.4756 27.0961 88.4983 27.0961C90.8099 27.0961 92.7302 26.0131 94.2593 24.0568L94.4727 26.9564L101.763 26.607Z" fill="white"/>
<path d="M110.846 21.8559V12.0743H114.58V9.69872H110.846L110.917 4.77295H107.29L105.512 9.66378L102.88 10.0131V12.0743H105.192V18.7468C105.192 20.1092 105.156 21.0175 105.156 22.2402C105.156 25.6987 107.041 27.0961 110.242 27.0961C112.873 27.0961 114.509 26.083 115.469 24.3013L114.58 23.4629C113.904 23.9869 113.3 24.2315 112.66 24.2315C111.593 24.2315 110.846 23.4978 110.846 21.8559Z" fill="white"/>
<path d="M126.725 24.9302L124.947 24.5808C124.911 22.869 124.911 20.7031 124.911 19.2358V14.5895L125.018 9.52404L124.413 9.13977L116.946 11.4804V12.8428L119.15 13.1572C119.221 14.5546 119.257 15.6376 119.257 17.559V19.2358C119.257 20.7031 119.257 22.8341 119.221 24.5109L117.301 24.9302V26.5721H126.725V24.9302Z" fill="white"/>
<path d="M138.688 10.9564C138.937 10.9564 139.15 10.9564 139.364 10.9913L139.613 12.738C139.755 15.2184 140.929 16.0568 142.315 16.0568C143.596 16.0568 144.342 15.4978 144.734 14.2402C144.485 11.4454 141.853 9.13977 138.084 9.13977C132.785 9.13977 128.482 12.4585 128.482 18.1878C128.482 24.0568 132.5 27.0961 137.337 27.0961C140.715 27.0961 143.24 25.7337 144.627 22.904L143.382 21.821C142.351 22.9738 141.106 23.7773 139.399 23.7773C136.412 23.7773 134.421 21.5415 134.421 17.524C134.421 12.8079 136.661 10.9564 138.688 10.9564Z" fill="white"/>
<path d="M146.165 21.901C146.165 20.907 146.379 20.0432 146.805 19.3095C147.231 18.5522 147.905 17.9132 148.828 17.3925C149.775 16.8718 150.982 16.4577 152.449 16.15C153.916 15.8187 155.691 15.5938 157.774 15.4755C157.679 14.6708 157.324 14.0437 156.709 13.594C156.117 13.1443 155.218 12.9195 154.011 12.9195C153.159 12.9195 152.295 13.0733 151.419 13.381C150.567 13.665 149.644 14.0555 148.65 14.5525L146.805 11.1445C148.012 10.4582 149.301 9.89016 150.674 9.44049C152.07 8.99082 153.526 8.76599 155.04 8.76599C157.502 8.76599 159.443 9.41682 160.863 10.7185C162.283 12.0202 162.992 14.02 162.992 16.718V26.8H158.732L158.342 24.812H158.2C157.301 25.4983 156.318 26.0782 155.253 26.5515C154.188 27.0012 153.088 27.226 151.952 27.226C151.053 27.226 150.248 27.084 149.538 26.8C148.828 26.5397 148.224 26.1728 147.727 25.6995C147.23 25.2025 146.84 24.6345 146.556 23.9955C146.296 23.3565 146.165 22.6583 146.165 21.901ZM151.171 21.5105C151.171 22.0785 151.384 22.5045 151.81 22.7885C152.26 23.0488 152.863 23.179 153.62 23.179C154.401 23.179 155.135 23.0252 155.822 22.7175C156.508 22.3862 157.159 21.9838 157.774 21.5105V18.5995C156.472 18.6705 155.396 18.7888 154.544 18.9545C153.692 19.1202 153.017 19.3332 152.52 19.5935C152.023 19.8302 151.668 20.1142 151.455 20.4455C151.266 20.7768 151.171 21.1318 151.171 21.5105Z" fill="white"/>
<path d="M171.641 28.1845V33.332H166.422V9.19199H170.682L171.073 10.967H171.179C171.889 10.328 172.706 9.80732 173.629 9.40499C174.552 8.97899 175.486 8.76599 176.433 8.76599C177.522 8.76599 178.504 8.97899 179.38 9.40499C180.255 9.83099 181.001 10.4345 181.616 11.2155C182.231 11.9965 182.693 12.9432 183.001 14.0555C183.332 15.1442 183.498 16.363 183.498 17.712C183.498 19.2267 183.285 20.5757 182.859 21.759C182.433 22.9187 181.865 23.9127 181.155 24.741C180.445 25.5457 179.628 26.161 178.705 26.587C177.806 27.013 176.859 27.226 175.865 27.226C174.256 27.226 172.788 26.587 171.463 25.309L171.641 28.1845ZM171.641 21.7945C172.138 22.2205 172.646 22.5282 173.167 22.7175C173.711 22.8832 174.208 22.966 174.658 22.966C175.652 22.966 176.48 22.5637 177.143 21.759C177.806 20.9307 178.137 19.6053 178.137 17.783C178.137 14.6117 177.06 13.026 174.907 13.026C173.794 13.026 172.706 13.5703 171.641 14.659V21.7945Z" fill="white"/>
<path d="M191.152 28.1845V33.332H185.933V9.19199H190.193L190.584 10.967H190.69C191.4 10.328 192.217 9.80732 193.14 9.40499C194.063 8.97899 194.998 8.76599 195.944 8.76599C197.033 8.76599 198.015 8.97899 198.891 9.40499C199.766 9.83099 200.512 10.4345 201.127 11.2155C201.743 11.9965 202.204 12.9432 202.512 14.0555C202.843 15.1442 203.009 16.363 203.009 17.712C203.009 19.2267 202.796 20.5757 202.37 21.759C201.944 22.9187 201.376 23.9127 200.666 24.741C199.956 25.5457 199.139 26.161 198.216 26.587C197.317 27.013 196.37 27.226 195.376 27.226C193.767 27.226 192.3 26.587 190.974 25.309L191.152 28.1845ZM191.152 21.7945C191.649 22.2205 192.158 22.5282 192.678 22.7175C193.223 22.8832 193.72 22.966 194.169 22.966C195.163 22.966 195.992 22.5637 196.654 21.759C197.317 20.9307 197.648 19.6053 197.648 17.783C197.648 14.6117 196.571 13.026 194.418 13.026C193.305 13.026 192.217 13.5703 191.152 14.659V21.7945Z" fill="white"/>
<path d="M60.8751 3.62012C60.8751 5.55311 59.3081 7.12012 57.3751 7.12012C55.4421 7.12012 53.8751 5.55311 53.8751 3.62012C53.8751 1.68712 55.4421 0.120117 57.3751 0.120117C59.3081 0.120117 60.8751 1.68712 60.8751 3.62012Z" fill="white"/>
<path d="M125 3.62012C125 5.55311 123.433 7.12012 121.5 7.12012C119.567 7.12012 118 5.55311 118 3.62012C118 1.68712 119.567 0.120117 121.5 0.120117C123.433 0.120117 125 1.68712 125 3.62012Z" fill="white"/>
</svg>
