<?xml version="1.0" encoding="UTF-8"?>
<svg width="350px" height="128px" viewBox="0 0 530 128" version="1.1" xmlns="http://www.w3.org/2000/svg" xmlns:xlink="http://www.w3.org/1999/xlink">
    <title>logotype-merci-black</title>
    <g stroke="none" stroke-width="1" fill="none" fill-rule="evenodd">
        <g transform="translate(-128.000000, -157.000000)" fill="#01072C">
            <path d="M192,157 C203.469302,157 214.70657,157.641506 225.711803,158.924518 L227.651495,159.157593 C241.352821,160.853087 252.146914,171.64718 253.842409,185.348507 C255.280803,196.972203 256,208.856034 256,221 C256,232.469302 255.358494,243.70657 254.075482,254.711803 L253.842407,256.651495 C252.146913,270.352821 241.35282,281.146914 227.651493,282.842409 C216.027797,284.280803 204.143966,285 192,285 C180.530698,285 169.29343,284.358494 158.288197,283.075482 L156.348505,282.842407 C142.647179,281.146913 131.853086,270.35282 130.157591,256.651493 C128.719197,245.027797 128,233.143966 128,221 C128,209.530698 128.641506,198.29343 129.924518,187.288197 L130.157593,185.348505 C131.853087,171.647179 142.64718,160.853086 156.348507,159.157591 C167.972203,157.719197 179.856034,157 192,157 Z M626.629219,206.724609 L627.238594,211.561523 L627.809883,211.561523 C629.409492,209.733398 631.047188,208.476563 632.722969,207.75293 C634.360664,207.067383 636.379219,206.724609 638.778633,206.724609 C644.186836,206.724609 648.680976,208.78125 652.29914,212.894531 C655.879218,217.007812 657.669258,222.263672 657.669258,228.624023 C657.669258,235.136719 655.95539,240.392578 652.565742,244.467773 C649.176094,248.542969 644.605781,250.561523 638.930976,250.561523 C634.931953,250.561523 631.542304,249.19043 628.800117,246.410156 L628.800117,246.410156 L628.266914,246.410156 L628.266914,253.989258 C628.266914,258.140625 629.599921,260.654297 632.304023,261.492187 L632.304023,261.492187 L631.618476,264.996094 L610.556953,264.996094 L609.795234,261.492187 C612.499336,260.654297 613.832344,258.140625 613.832344,253.989258 L613.832344,253.989258 L613.832344,224.129883 C613.832344,219.978516 612.461249,217.464844 609.680976,216.626953 L609.680976,216.626953 L610.556953,213.123047 C616.1175,212.170898 621.068671,210.038086 625.448554,206.724609 L625.448554,206.724609 L626.629219,206.724609 Z M577.949199,206.724609 L578.558574,211.561523 L579.129863,211.561523 C580.729472,209.733398 582.367168,208.476562 584.042949,207.75293 C585.680644,207.067383 587.699199,206.724609 590.098613,206.724609 C595.506816,206.724609 600.000957,208.78125 603.619121,212.894531 C607.199199,217.007812 608.989238,222.263672 608.989238,228.624023 C608.989238,235.136719 607.27537,240.392578 603.885722,244.467773 C600.496074,248.542969 595.925762,250.561523 590.250957,250.561523 C586.251934,250.561523 582.862285,249.19043 580.120097,246.410156 L580.120097,246.410156 L579.586894,246.410156 L579.586894,253.989258 C579.586894,258.140625 580.919902,260.654297 583.624004,261.492187 L583.624004,261.492187 L582.938457,264.996094 L561.876933,264.996094 L561.115215,261.492187 C563.819317,260.654297 565.152324,258.140625 565.152324,253.989258 L565.152324,253.989258 L565.152324,224.129883 C565.152324,219.978516 563.78123,217.464844 561.000957,216.626953 L561.000957,216.626953 L561.876933,213.123047 C567.43748,212.170898 572.388652,210.038086 576.768535,206.724609 L576.768535,206.724609 L577.949199,206.724609 Z M234.557336,216.209989 C231.32197,222.555029 225.415613,227.950979 218.396551,232.292829 C211.346732,236.342044 203.06983,239.870572 193.903532,240.780969 C184.737235,241.691366 176.617052,241.175544 169.101371,239.45042 C161.557278,237.90229 155.320509,234.388121 150.904317,231.287636 L147.948739,233.900193 C159.514733,247.322315 175.446432,254.418181 195.610218,253.91651 C215.736074,253.501287 229.794908,242.330714 237.510534,218.671715 L234.557336,216.209989 Z M455.223262,206.800781 C460.479121,206.800781 464.935176,208.057617 468.591426,210.609375 C472.247676,213.161133 474.075801,216.398438 474.075801,220.283203 C474.075801,222.111328 473.390254,223.749023 471.981074,225.158203 C470.571894,226.605469 468.934199,227.329102 467.067988,227.329102 C462.802363,227.329102 460.288691,225.043945 459.374629,222.225586 C458.879512,220.816406 458.460566,219.445312 458.117793,218.074219 C457.356074,215.332031 455.870723,213.046875 452.938105,213.046875 C451.452754,213.046875 450.119746,213.84668 449.015254,215.484375 C447.910762,217.12207 447.339473,219.292969 447.339473,221.99707 C447.339473,233.003906 451.985957,239.173828 460.821894,239.173828 C462.916621,239.173828 464.859004,238.640625 466.725215,237.612305 C468.55334,236.583984 470.038691,235.441406 471.219355,234.18457 L471.219355,234.18457 L473.923457,235.212891 C472.361934,245.458008 466.344355,250.561523 455.832637,250.561523 C449.015254,250.561523 443.492793,248.390625 439.265254,244.010742 C435.037715,239.630859 432.904902,234.527344 432.904902,228.624023 C432.904902,221.920898 435.037715,216.588867 439.30334,212.666016 C443.568965,208.743164 448.86291,206.800781 455.223262,206.800781 Z M371.95502,206.800781 C376.030215,206.800781 379.572207,207.714844 382.619082,209.542969 C385.627871,211.40918 387.79877,213.999023 389.093691,217.350586 C389.779238,218.950195 390.731387,219.826172 391.912051,219.978516 L391.912051,219.978516 L392.67377,224.282227 L366.318301,232.318359 C368.451113,236.888672 372.526309,239.173828 378.505801,239.173828 C382.200137,239.173828 385.551699,237.459961 388.560488,234.032227 L388.560488,234.032227 L391.302676,235.022461 C391.036074,239.173828 389.169863,242.830078 385.704043,245.915039 C382.200137,249 377.782168,250.561523 372.488223,250.561523 C365.67084,250.561523 360.186465,248.390625 355.958926,244.010742 C351.731387,239.630859 349.63666,234.527344 349.63666,228.624023 C349.63666,221.920898 351.769473,216.588867 356.035098,212.666016 C360.300723,208.743164 365.594668,206.800781 371.95502,206.800781 Z M304.765234,194.384766 L315.429297,222.720703 L315.886328,222.720703 L326.74082,194.384766 L343.765234,194.384766 L344.450781,197.926758 C341.899023,198.764648 340.870703,201.240234 341.327734,205.391602 L341.327734,205.391602 L345.250586,237.993164 C345.707617,242.144531 347.307227,244.658203 350.049414,245.496094 L350.049414,245.496094 L349.287695,249 L325.90293,249 L325.103125,245.496094 C327.654883,244.658203 328.683203,242.144531 328.226172,237.993164 L328.226172,237.993164 L325.90293,218.264648 L325.103125,218.264648 L313.33457,249 L307.316992,249 L295.624609,217.883789 L295.015234,217.883789 L292.577734,237.993164 C292.120703,242.144531 293.149023,244.658203 295.700781,245.496094 L295.700781,245.496094 L295.015234,249 L281.342383,249 L280.580664,245.496094 C283.360938,244.658203 284.960547,242.144531 285.417578,237.993164 L285.417578,237.993164 L289.302344,205.391602 C289.759375,201.240234 288.731055,198.726562 286.179297,197.926758 L286.179297,197.926758 L286.979102,194.384766 L304.765234,194.384766 Z M411.456328,206.724609 L411.913359,212.513672 L412.294219,212.513672 C414.807891,208.666992 418.464141,206.724609 423.224883,206.724609 C425.852812,206.724609 428.099883,207.600586 429.889922,209.390625 C431.679961,211.180664 432.594023,213.46582 432.594023,216.169922 C432.594023,218.607422 431.832305,220.664062 430.270781,222.339844 C428.709258,224.053711 426.804961,224.891602 424.557891,224.891602 C419.644805,224.929688 418.311797,221.844727 417.588164,219.597656 C416.978789,218.036133 416.140898,216.703125 414.807891,216.703125 C413.208281,216.703125 412.408477,218.569336 412.370391,222.263672 L412.370391,222.263672 L412.370391,237.993164 C412.370391,242.144531 413.741484,244.658203 416.521758,245.496094 L416.521758,245.496094 L415.645781,249 L394.584258,249 L393.822539,245.496094 C396.526641,244.658203 397.859648,242.144531 397.859648,237.993164 L397.859648,237.993164 L397.859648,224.206055 C397.859648,220.054688 396.526641,217.541016 393.822539,216.703125 L393.822539,216.703125 L394.584258,213.199219 C396.71707,212.894531 398.773711,212.361328 400.792266,211.637695 C402.81082,210.914062 404.372344,210.19043 405.514922,209.542969 C406.6575,208.895508 408.257109,207.981445 410.275664,206.724609 L410.275664,206.724609 L411.456328,206.724609 Z M492.515586,206.724609 L492.515586,238.069336 C492.515586,242.182617 493.88668,244.696289 496.666953,245.572266 L496.666953,245.572266 L495.790976,249 L474.729453,249 L473.967734,245.572266 C476.671836,244.696289 478.004844,242.182617 478.004844,238.069336 L478.004844,238.069336 L478.004844,223.634766 C478.004844,219.483398 476.671836,216.969727 473.967734,216.169922 L473.967734,216.169922 L474.729453,212.666016 C480.861289,211.713867 486.421836,209.733398 491.373008,206.724609 L491.373008,206.724609 L492.515586,206.724609 Z M536.048476,192.518555 L555.091445,237.993164 C556.881484,242.144531 559.242812,244.658203 562.251601,245.496094 L562.251601,245.496094 L561.489883,249 L536.657851,249 L535.896133,245.496094 C538.295547,244.658203 538.600234,242.144531 536.848281,237.993164 L536.848281,237.993164 L536.58168,237.459961 L517.005508,237.459961 L516.776992,237.993164 C514.986953,242.144531 515.329726,244.658203 517.72914,245.496094 L517.72914,245.496094 L516.929336,249 L503.827773,249 L503.066055,245.496094 C506.189102,244.658203 508.588516,242.144531 510.226211,237.993164 L510.226211,237.993164 L523.556289,206.039062 C522.604141,204.058594 521.118789,202.154297 519.062148,200.326172 L519.062148,200.326172 L519.51918,196.822266 C520.318985,196.822266 521.309219,196.78418 522.527969,196.708008 C523.746719,196.631836 525.765274,196.212891 528.621719,195.489258 C531.440078,194.765625 533.687149,193.775391 535.36293,192.518555 L535.36293,192.518555 L536.048476,192.518555 Z M585.185527,213.960938 C581.719707,213.960938 579.739238,217.50293 579.739238,222.720703 C579.739238,226.262695 580.424785,230.680664 581.833965,235.250977 C582.519512,237.574219 583.547832,239.478516 584.918926,241.001953 C586.29002,242.525391 587.851543,243.287109 589.641582,243.287109 C591.355449,243.287109 592.726543,242.449219 593.754863,240.811523 C594.783183,239.173828 595.278301,237.117187 595.278301,234.641602 C595.278301,231.442383 594.63084,227.024414 593.183574,222.301758 C592.459941,219.978516 591.393535,217.998047 590.022441,216.360352 C588.613261,214.760742 587.013652,213.960938 585.185527,213.960938 Z M633.865547,213.960938 C630.399727,213.960938 628.419258,217.50293 628.419258,222.720703 C628.419258,226.262695 629.104804,230.680664 630.513984,235.250977 C631.199531,237.574219 632.227851,239.478516 633.598945,241.001953 C634.970039,242.525391 636.531562,243.287109 638.321601,243.287109 C640.035468,243.287109 641.406563,242.449219 642.434883,240.811523 C643.463203,239.173828 643.95832,237.117187 643.95832,234.641602 C643.95832,231.442383 643.31086,227.024414 641.863594,222.301758 C641.139961,219.978516 640.073555,217.998047 638.702461,216.360352 C637.293281,214.760742 635.693672,213.960938 633.865547,213.960938 Z M526.984023,214.456055 L526.603164,214.456055 L519.823867,230.680664 L533.801406,230.680664 L526.984023,214.456055 Z M370.241152,213.732422 C368.679629,213.732422 367.346621,214.532227 366.204043,216.169922 C365.023379,217.807617 364.45209,219.75 364.45209,221.920898 C364.45209,223.520508 364.528262,224.967773 364.680605,226.300781 L364.680605,226.300781 L376.220645,222.796875 C376.068301,220.473633 375.497012,218.378906 374.506777,216.512695 C373.478457,214.646484 372.069277,213.732422 370.241152,213.732422 Z M177.227488,192.982432 C174.26654,193.439323 171.981496,194.959212 170.323556,197.525052 C168.616103,200.067129 167.97446,202.908669 168.302957,206.034108 C168.426817,207.212552 168.974562,208.398131 169.95222,209.648174 L169.576718,210.101398 C166.28978,209.245981 163.438907,208.066262 160.972655,206.520082 C158.551032,204.951208 156.153601,202.717866 153.771821,199.738789 L148.642055,204.163304 C151.632213,209.352157 155.640353,213.490774 160.626251,216.643819 C165.666916,219.870621 170.952007,221.397109 176.419099,221.076664 C180.764057,220.815489 184.032885,219.262008 186.228291,216.441983 C188.372686,213.583931 189.221551,210.030067 188.778067,205.810602 C188.357621,201.81033 187.078606,198.587683 184.932016,196.057016 C182.74254,193.565638 180.188721,192.528251 177.227488,192.982432 Z M208.129576,188.495979 C204.841398,188.970721 202.299618,190.731783 200.501735,193.755437 C198.70081,196.750148 197.977279,200.154563 198.3858,204.041381 C198.7884,207.871868 200.203041,211.042924 202.585503,213.581169 C204.965019,216.091384 207.815154,217.264119 211.127467,217.019 C214.43947,216.770939 216.996527,215.155177 218.796694,212.153263 C220.594032,209.124419 221.255898,205.580614 220.83091,201.537128 C220.399673,197.434178 219.010046,194.0538 216.62395,191.480981 C214.240701,188.935251 211.411961,187.96612 208.129576,188.495979 Z M484.898398,188.862305 C487.488242,188.862305 489.544883,189.662109 491.106406,191.261719 C492.629844,192.899414 493.391562,194.727539 493.391562,196.822266 C493.391562,198.84082 492.629844,200.630859 491.106406,202.192383 C489.544883,203.753906 487.488242,204.553711 484.898398,204.553711 C482.270469,204.553711 480.213828,203.791992 478.728476,202.230469 C477.205039,200.707031 476.44332,198.916992 476.44332,196.822266 C476.44332,194.727539 477.205039,192.899414 478.728476,191.261719 C480.213828,189.662109 482.270469,188.862305 484.898398,188.862305 Z"></path>
        </g>
    </g>
</svg>